<?xml version="1.0" encoding="utf-8"?>
<!-- Generator: Adobe Illustrator 27.5.0, SVG Export Plug-In . SVG Version: 6.00 Build 0)  -->
<svg version="1.1" xmlns="http://www.w3.org/2000/svg" xmlns:xlink="http://www.w3.org/1999/xlink" x="0px" y="0px"
	 viewBox="0 0 500 500" style="enable-background:new 0 0 500 500;" xml:space="preserve">
<g id="BACKGROUND">
	<rect x="0.001" style="fill:#FFEDE6;" width="499.999" height="500"/>
</g>
<g id="OBJECTS">
	<g>
		
			<ellipse transform="matrix(0.1336 -0.991 0.991 0.1336 24.973 415.2802)" style="fill:#FF9599;" cx="250" cy="193.357" rx="157.564" ry="157.565"/>
		<g>
			<path style="fill:#FFFFFF;" d="M327.371,294.353h103.994c4.563,0,8.26-3.699,8.26-8.264c0-4.563-3.697-8.26-8.26-8.26h-22.074
				c-2.84,0-5.143-2.305-5.143-5.143c0-2.838,2.303-5.143,5.143-5.143h7.035c4.563,0,8.262-3.699,8.262-8.262
				c0-4.561-3.699-8.26-8.262-8.26h-51.752c-4.564,0-8.262,3.699-8.262,8.26c0,4.563,3.697,8.262,8.262,8.262h5.807
				c2.838,0,5.137,2.305,5.137,5.143c0,2.838-2.299,5.143-5.137,5.143h-43.01c-4.563,0-8.26,3.697-8.26,8.26
				C319.111,290.653,322.809,294.353,327.371,294.353z"/>
			<path style="fill:#FFFFFF;" d="M394.818,123.822H290.824c-4.563,0-8.26-3.699-8.26-8.264c0-4.563,3.697-8.26,8.26-8.26h22.074
				c2.84,0,5.143-2.305,5.143-5.142c0-2.838-2.303-5.143-5.143-5.143h-7.035c-4.563,0-8.262-3.699-8.262-8.262
				c0-4.561,3.699-8.26,8.262-8.26h51.752c4.564,0,8.262,3.699,8.262,8.26c0,4.563-3.697,8.262-8.262,8.262h-5.807
				c-2.838,0-5.137,2.305-5.137,5.143c0,2.838,2.299,5.142,5.137,5.142h43.01c4.563,0,8.26,3.697,8.26,8.26
				C403.078,120.123,399.381,123.822,394.818,123.822z"/>
			<path style="fill:#FFFFFF;" d="M157.152,228.066H53.158c-4.563,0-8.26,3.699-8.26,8.264c0,4.563,3.697,8.259,8.26,8.259h22.916
				c2.84,0,5.143,2.305,5.143,5.143c0,2.838-2.303,5.143-5.143,5.143h-7.035c-4.563,0-8.262,3.699-8.262,8.262
				c0,4.562,3.699,8.261,8.262,8.261h59.06c4.564,0,8.262-3.699,8.262-8.261c0-4.563-3.697-8.262-8.262-8.262h-9.769
				c-2.838,0-5.137-2.305-5.137-5.143c0-2.838,2.299-5.143,5.137-5.143h38.822c4.563,0,8.26-3.696,8.26-8.259
				C165.412,231.766,161.714,228.066,157.152,228.066z"/>
			<path style="fill:#FFFFFF;" d="M293.807,178.676c-4.563,0-8.26-3.696-8.26-8.259c0-4.565,3.697-8.264,8.26-8.264h20.807
				c4.563,0,8.26,3.696,8.26,8.259c0,4.564-3.697,8.264-8.26,8.264H293.807z"/>
		</g>
		
			<line style="fill:none;stroke:#0D0F14;stroke-width:3;stroke-linecap:round;stroke-linejoin:round;stroke-miterlimit:10;" x1="44.898" y1="464.207" x2="455.102" y2="464.207"/>
		<g>
			<g>
				<g id="XMLID_16_">
					<g>
						<path style="fill:#FFFFFF;" d="M342.846,282.464c6.393-0.791,5.773,2.053,4.391,4.219
							c-12.002,18.786-5.877,33.873-10.154,50.765c-4.277,16.893-20.162,29.345-28.383,30.949c6.512,3.888,7.898,11.618,3.236,9.815
							c-4.662-1.802-16.188-2.911-28.017,0.888c-11.826,3.8-25.043,0.169-33.241-9.247c-37.291-5.021-36.312-42.781-24.114-51.972
							c2.17-18.47,22.352-30.951,31.095-42.802c7.658-14.355,4.209-28.656,3.08-31.923c-1.135-3.281,0.559-3.793,1.291-3.525
							c0.414,0.152,3.418,2.045,6.174,5.895c14.09-43.45,52.506-37.619,63.193-36.129c10.697,1.494,18.111,0.089,22.152-1.973
							c1.438-0.739,3.699-0.369,2.146,2.891c-1.041,2.184-2.193,4.051-3.453,5.648c0,0,7.393,3.161,16.047,1.813
							c12.365-1.906,13.678-8.782,15.633-8.368c1.955,0.414,4.348,9.212,0.019,21.076c-3.215,8.817-8.939,17.294-23.598,25.271
							C345.684,263.745,342.508,275.719,342.846,282.464z"/>
					</g>
					<path style="fill:#EEE4E2;" d="M322.211,299.602c0,0,5.691-15.11,21.748-17.244c-0.346,0.023-0.715,0.058-1.113,0.107
						c-0.117-2.312,0.18-5.237,1.213-8.406C335.072,276.141,325.254,284.317,322.211,299.602z"/>
					<path style="fill:#EEE4E2;" d="M289.828,363.652c11.266-3.756,15.947,1.27,18.871,4.744
						c5.764-1.126,15.295-7.591,21.953-17.177c-11.453,9.008-26.607,12.708-26.607,12.708c-4.996-4.682-16.752-6.67-22.953-5.35
						c17.416-25.66,3.486-66.022-0.131-76.473l0,0c-1.203-5.61-3.186-9.655-4.061-11.137c-1.771-2.986-0.215-3.828,0.559-3.712
						c0.434,0.065,3.756,1.32,7.226,4.541c5.117-45.389,43.922-47.359,54.692-48.038c10.176-0.636,16.963-3.221,20.674-5.887
						c-4.623-0.557-7.809-1.909-7.809-1.909c1.26-1.598,2.412-3.465,3.453-5.648c1.553-3.26-0.709-3.63-2.146-2.891
						c-4.041,2.061-11.455,3.467-22.152,1.973c-10.687-1.49-49.103-7.321-63.193,36.129c-2.756-3.851-5.76-5.743-6.174-5.895
						c-0.732-0.268-2.426,0.244-1.291,3.525c1.129,3.267,4.578,17.567-3.08,31.923c-8.743,11.851-28.925,24.332-31.095,42.802
						c-12.197,9.19-13.177,46.95,24.114,51.972c1.473,1.693,3.116,3.191,4.875,4.502c-0.029-0.103-0.053-0.205-0.082-0.307
						c0.385,0.436,0.789,0.833,1.232,1.132c7.881,5.32,17.973,6.891,27.215,3.92c11.279-3.622,22.27-2.78,27.309-1.132
						C306.242,367.077,294.207,362.36,289.828,363.652z"/>
					<g>
						<g>
							<path style="fill:#0D0F14;" d="M339.172,284.939c0,0-0.476,0.177-1.308,0.487c-0.417,0.155-0.839,0.366-1.372,0.594
								c-0.524,0.227-1.113,0.564-1.761,0.886c-0.616,0.382-1.322,0.744-2.001,1.229c-0.345,0.235-0.699,0.478-1.061,0.726
								c-0.346,0.27-0.699,0.546-1.059,0.826c-0.369,0.271-0.703,0.59-1.055,0.901c-0.345,0.318-0.719,0.617-1.039,0.973
								c-0.333,0.345-0.669,0.692-1.006,1.04l-0.934,1.12c-0.325,0.365-0.594,0.771-0.872,1.168
								c-0.268,0.403-0.584,0.777-0.807,1.202c-0.241,0.415-0.48,0.827-0.717,1.233c-0.237,0.407-0.404,0.843-0.607,1.253
								c-0.423,0.816-0.676,1.668-0.969,2.458c-0.28,0.794-0.419,1.583-0.617,2.294c-0.153,0.721-0.22,1.396-0.319,1.989
								c-0.115,0.593-0.094,1.121-0.128,1.552c-0.044,0.866-0.069,1.361-0.069,1.361l-0.003,0.058
								c-0.017,0.327-0.295,0.579-0.622,0.563c-0.315-0.016-0.561-0.277-0.563-0.589c0,0-0.004-0.52-0.009-1.428
								c0.01-0.455-0.04-1.011,0.044-1.642c0.068-0.632,0.101-1.352,0.221-2.127c0.165-0.766,0.271-1.617,0.522-2.482
								c0.263-0.862,0.489-1.793,0.892-2.696c0.192-0.453,0.351-0.934,0.58-1.387c0.231-0.454,0.465-0.913,0.699-1.375
								c0.219-0.475,0.532-0.896,0.798-1.349c0.278-0.447,0.548-0.903,0.875-1.317l0.944-1.27c0.344-0.398,0.686-0.795,1.026-1.188
								c0.329-0.405,0.711-0.752,1.066-1.117c0.361-0.359,0.708-0.728,1.09-1.043c0.373-0.326,0.74-0.647,1.1-0.961
								c0.378-0.291,0.748-0.576,1.107-0.854c0.713-0.568,1.454-1.008,2.108-1.461c0.692-0.398,1.298-0.789,1.892-1.09
								c0.588-0.294,1.122-0.584,1.528-0.761c0.813-0.356,1.278-0.56,1.278-0.56c0.76-0.332,1.645,0.014,1.976,0.772
								c0.332,0.76-0.014,1.645-0.772,1.977C339.227,284.917,339.196,284.93,339.172,284.939z"/>
						</g>
						<path style="fill:none;stroke:#0D0F14;stroke-width:3;stroke-linecap:round;stroke-linejoin:round;stroke-miterlimit:10;" d="
							M308.699,368.397c8.221-1.605,24.105-14.057,28.383-30.949c4.277-16.892-1.848-31.978,10.154-50.765
							c1.383-2.166,2.002-5.01-4.391-4.219c-1.266,0.157-2.707,0.52-4.236,1.084"/>
						<path style="fill:none;stroke:#0D0F14;stroke-width:3;stroke-linecap:round;stroke-linejoin:round;stroke-miterlimit:10;" d="
							M342.846,282.464c-0.338-6.745,2.838-18.719,17.498-26.707c14.658-7.978,20.383-16.454,23.598-25.271
							c4.328-11.864,1.936-20.662-0.019-21.076c-1.955-0.414-3.268,6.462-15.633,8.368c-8.654,1.348-16.047-1.813-16.047-1.813"/>
						<path style="fill:none;stroke:#0D0F14;stroke-width:3;stroke-linecap:round;stroke-linejoin:round;stroke-miterlimit:10;" d="
							M350.301,218.144c0.672-0.662,1.318-1.387,1.941-2.18c1.26-1.598,2.412-3.465,3.453-5.648c1.553-3.26-0.709-3.63-2.146-2.891
							c-4.041,2.061-11.455,3.467-22.152,1.973c-10.687-1.49-49.103-7.321-63.193,36.129"/>
						<g>
							<path style="fill:#0D0F14;" d="M333.264,223.587c0,0,0.29-0.018,0.798-0.049c0.499-0.048,1.253-0.039,2.084-0.167
								c0.416-0.058,0.866-0.121,1.343-0.187c0.477-0.044,0.973-0.196,1.486-0.301c0.511-0.126,1.05-0.208,1.565-0.404
								c0.518-0.171,1.046-0.345,1.573-0.52c0.502-0.228,1.004-0.455,1.499-0.678c0.505-0.196,0.941-0.509,1.385-0.762
								c0.433-0.274,0.882-0.483,1.237-0.794c0.37-0.284,0.72-0.553,1.042-0.801c0.334-0.23,0.593-0.503,0.829-0.735
								c0.236-0.231,0.441-0.431,0.611-0.597c0.338-0.329,0.532-0.516,0.532-0.516l0.116-0.113c0.596-0.578,1.547-0.564,2.125,0.032
								c0.578,0.596,0.564,1.547-0.031,2.126c-0.033,0.032-0.069,0.064-0.105,0.092c0,0-0.242,0.196-0.668,0.538
								c-0.212,0.17-0.47,0.377-0.766,0.613c-0.295,0.237-0.619,0.512-1.027,0.744c-0.395,0.247-0.822,0.513-1.274,0.795
								c-0.437,0.305-0.97,0.503-1.486,0.761c-0.527,0.237-1.05,0.53-1.633,0.699c-0.57,0.193-1.15,0.389-1.729,0.585
								c-0.593,0.134-1.185,0.268-1.77,0.4c-0.577,0.155-1.164,0.19-1.722,0.27c-0.561,0.06-1.093,0.165-1.617,0.165
								c-0.518,0.021-1.007,0.04-1.459,0.059c-0.904,0.045-1.607-0.036-2.123-0.037c-0.509-0.019-0.8-0.029-0.8-0.029
								c-0.328-0.011-0.585-0.286-0.574-0.615C332.716,223.853,332.962,223.607,333.264,223.587z"/>
						</g>
						<g>
							<path style="fill:#0D0F14;" d="M306.447,367.486c0,0-0.218-0.234-0.599-0.643c-0.204-0.244-0.385-0.333-0.623-0.558
								c-0.204-0.206-0.565-0.421-0.908-0.667c-0.348-0.251-0.784-0.453-1.214-0.71c-0.467-0.199-0.936-0.463-1.468-0.643
								c-0.264-0.097-0.53-0.196-0.802-0.297c-0.278-0.08-0.56-0.162-0.844-0.245c-0.565-0.182-1.164-0.27-1.755-0.4
								c-0.598-0.075-1.197-0.188-1.791-0.203c-0.597-0.058-1.179-0.038-1.745-0.024c-0.563,0.027-1.106,0.092-1.615,0.17
								c-0.497,0.116-0.99,0.178-1.403,0.343c-0.426,0.134-0.816,0.263-1.131,0.438c-0.323,0.157-0.62,0.277-0.82,0.438
								c-0.43,0.287-0.675,0.451-0.675,0.451l-0.081,0.054c-0.271,0.182-0.638,0.108-0.819-0.163
								c-0.17-0.255-0.113-0.597,0.119-0.787c0,0,0.269-0.217,0.736-0.597c0.227-0.208,0.548-0.379,0.907-0.595
								c0.354-0.234,0.783-0.423,1.258-0.62c0.466-0.229,1.003-0.352,1.563-0.531c0.564-0.141,1.169-0.267,1.797-0.354
								c0.629-0.072,1.282-0.149,1.945-0.147c0.667-0.039,1.337,0.022,2.013,0.051c0.668,0.083,1.348,0.127,1.998,0.272
								c0.328,0.064,0.653,0.129,0.974,0.192c0.317,0.086,0.631,0.171,0.939,0.255c0.621,0.153,1.197,0.403,1.758,0.591
								c0.541,0.255,1.07,0.452,1.53,0.72c0.464,0.27,0.883,0.471,1.272,0.774c0.362,0.27,0.768,0.538,0.938,0.716
								c0.416,0.374,0.654,0.589,0.654,0.589c0.616,0.555,0.666,1.504,0.111,2.12c-0.556,0.616-1.505,0.666-2.121,0.111
								c-0.032-0.029-0.064-0.06-0.093-0.091L306.447,367.486z"/>
						</g>
						<path style="fill:none;stroke:#0D0F14;stroke-width:3;stroke-linecap:round;stroke-linejoin:round;stroke-miterlimit:10;" d="
							M268.91,246.564c-0.234-0.36-0.469-0.707-0.707-1.038c-2.756-3.851-5.76-5.743-6.174-5.895
							c-0.732-0.268-2.426,0.244-1.291,3.525c1.129,3.267,4.578,17.567-3.08,31.923c-8.743,11.851-28.925,24.332-31.095,42.802
							c-12.197,9.19-13.177,46.95,24.114,51.972c8.198,9.416,21.415,13.047,33.241,9.247c11.83-3.799,23.355-2.689,28.017-0.888
							c4.662,1.803,3.275-5.928-3.236-9.815c-0.244-0.703-0.654-1.366-1.197-1.977"/>
						<g>
							<path style="fill:#0D0F14;" d="M272.247,257.693c0,0-0.187-0.716-0.468-1.788c-0.159-0.523-0.26-1.195-0.522-1.801
								c-0.245-0.608-0.506-1.258-0.768-1.907c-0.229-0.647-0.646-1.256-0.935-1.841c-0.156-0.29-0.307-0.569-0.449-0.835
								c-0.146-0.263-0.327-0.488-0.471-0.708c-0.591-0.862-0.985-1.437-0.985-1.437l-0.08-0.116
								c-0.471-0.686-0.296-1.625,0.391-2.097c0.686-0.471,1.625-0.296,2.097,0.39c0.042,0.062,0.083,0.133,0.114,0.198
								c0,0,0.34,0.704,0.85,1.76c0.12,0.266,0.275,0.54,0.392,0.854c0.112,0.314,0.23,0.646,0.354,0.989
								c0.12,0.341,0.246,0.694,0.373,1.052c0.132,0.354,0.256,0.718,0.332,1.11c0.174,0.759,0.348,1.519,0.511,2.23
								c0.176,0.708,0.166,1.338,0.246,1.894c0.113,1.103,0.19,1.839,0.19,1.839c0.034,0.327-0.204,0.621-0.531,0.654
								C272.589,258.166,272.32,257.973,272.247,257.693z"/>
						</g>
					</g>
				</g>
				<g>
					<g>
						<g>
							<path style="fill:#7153B5;" d="M234.568,316.408c0.193,0.53,0.457,1.274,0.821,2.178c0.717,1.801,1.679,4.143,2.724,6.427
								c1.07,2.302,2.174,4.524,3.028,6.161c0.891,1.636,1.483,2.726,1.483,2.726c4.411-1.392,7.741-4.005,9.747-7.312
								c1.986-3.334,2.766-7.33,1.979-11.845c0,0-0.365-1.154-0.865-2.945c-0.51-1.796-1.057-4.164-1.559-6.669
								c-0.455-2.454-0.814-5.004-1.01-6.939c-0.176-1.918-0.246-3.238-0.246-3.238c-5.074,0.049-9.895,2.742-12.974,6.705
								c-3.093,3.964-4.512,9.076-3.427,13.92C234.269,315.576,234.378,315.879,234.568,316.408z"/>
							<path style="fill:#7153B5;" d="M287.955,295.162c0,0,0.607-0.925,1.762-2.302c0.58-0.691,1.281-1.392,2.125-2.183
								c0.846-0.804,1.795-1.551,2.826-2.268c0.514-0.362,1.049-0.718,1.594-1.062c0.539-0.325,1.078-0.614,1.619-0.901
								c1.074-0.552,2.172-1.092,3.094-1.438c1.863-0.724,3.236-1.121,3.236-1.121c-0.521-1.23-1.195-2.495-2.109-3.596
								c-0.932-1.069-1.983-2.183-3.258-3c-0.631-0.43-1.293-0.835-1.98-1.213c-0.693-0.358-1.426-0.645-2.17-0.925
								c-1.486-0.593-3.07-0.865-4.662-1.069c-0.795-0.107-1.59-0.078-2.383-0.072c-0.789,0.034-1.586,0.039-2.346,0.191
								c-1.525,0.278-3.027,0.617-4.365,1.251c-0.678,0.298-1.328,0.624-1.949,0.977c-0.611,0.371-1.18,0.799-1.721,1.232
								c-0.539,0.439-1.047,0.895-1.51,1.384c-0.451,0.513-0.863,1.045-1.236,1.595c0,0-0.148,0.305-0.41,0.837
								c-0.25,0.538-0.613,1.271-0.969,2.221c-0.363,0.935-0.756,2.017-1.123,3.157c-0.367,1.139-0.674,2.418-0.951,3.63
								c-0.281,1.208-0.486,2.442-0.637,3.6c-0.154,1.152-0.266,2.189-0.33,3.094c-0.113,1.839-0.117,3.015-0.117,3.015
								c4.23,1.357,7.703,1.569,10.395,0.809C283.103,300.222,285.197,298.3,287.955,295.162z"/>
							<path style="fill:#7153B5;" d="M330.816,321.315c0.008-0.79-0.018-1.583-0.074-2.369c-0.053-0.785-0.139-1.563-0.346-2.324
								c-0.391-1.517-0.799-3.004-1.523-4.33c-0.725-1.325-1.523-2.555-2.471-3.601c-1.008-1.023-2.096-1.896-3.238-2.584
								c0,0-0.313-0.13-0.858-0.358c-0.57-0.208-1.395-0.483-2.361-0.775c-0.967-0.29-2.082-0.591-3.246-0.852
								c-1.185-0.25-2.504-0.412-3.744-0.543c-2.451-0.288-4.963-0.184-6.734-0.036c-0.889,0.073-1.602,0.157-2.104,0.226
								c-0.521,0.086-0.82,0.135-0.82,0.135c-0.852,4.316-0.809,7.441,0.094,9.813c0.17,0.611,0.549,1.161,0.902,1.717
								c0.31,0.559,0.803,1.091,1.334,1.64c0.469,0.554,1.07,1.11,1.793,1.693c0.635,0.588,1.365,1.199,2.229,1.841
								c0,0,0.252,0.15,0.693,0.416c0.439,0.272,0.998,0.675,1.703,1.21c0.697,0.534,1.51,1.201,2.373,1.991
								c0.81,0.781,1.627,1.677,2.445,2.649c0.406,0.486,0.811,0.99,1.201,1.503c0.361,0.505,0.701,1.014,1.029,1.522
								c0.658,1.017,1.246,2.026,1.736,2.923c0.498,0.901,0.807,1.643,1.059,2.189c0.238,0.548,0.373,0.86,0.373,0.86
								c1.205-0.598,2.373-1.366,3.344-2.361c0.5-0.488,0.982-1.014,1.445-1.574c0.23-0.281,0.455-0.567,0.674-0.865
								c0.193-0.307,0.383-0.621,0.566-0.942c0.365-0.643,0.705-1.316,1.016-2.011c0.318-0.694,0.605-1.41,0.779-2.165
								c0.199-0.749,0.365-1.515,0.498-2.288C330.723,322.89,330.83,322.109,330.816,321.315z"/>
							<path style="fill:#7153B5;" d="M303.551,343.204c-0.164-1.163-0.352-2.215-0.531-3.097c-0.178-0.882-0.348-1.594-0.469-2.087
								c-0.117-0.489-0.217-0.781-0.217-0.781c-4.385-0.329-7.693,0.28-10.428,2.029c-2.713,1.761-5.027,4.56-6.59,8.834
								c0,0-0.279,1.139-0.801,2.886c-0.52,1.737-1.299,4.153-2.295,6.414c-0.977,2.284-2.102,4.695-3.039,6.338
								c-0.928,1.689-1.611,2.822-1.611,2.822c1.057,0.685,2.197,1.245,3.395,1.683c1.197,0.41,2.449,0.631,3.734,0.765
								c2.576,0.323,5.24-0.175,7.77-0.973c5.039-1.84,9.305-5.907,10.758-10.858c0,0,0.051-0.324,0.139-0.894
								c0.074-0.586,0.174-1.421,0.266-2.405c0.188-1.971,0.348-4.503,0.201-7.062C303.773,345.555,303.685,344.337,303.551,343.204
								z"/>
							<path style="fill:#7153B5;" d="M256.58,346.41c-0.91-0.307-1.834-0.444-2.779-0.62c-3.762-0.499-7.807,0.408-11.665,2.965
								c0,0-0.939,0.788-2.35,1.969c-1.428,1.16-3.406,2.766-5.438,4.224c-4.031,2.909-8.468,5.681-8.468,5.681
								c1.12,2.158,2.714,4.026,4.612,5.538c1.895,1.517,4.185,2.49,6.533,3.144c2.361,0.626,4.904,0.64,7.295,0.295
								c2.411-0.398,4.753-1.401,6.754-2.803c0,0,0.234-0.22,0.643-0.604c0.404-0.374,0.986-0.948,1.67-1.646
								c1.367-1.39,3.119-3.252,4.758-5.123c1.646-1.888,3.176-3.913,4.264-5.373c1.09-1.478,1.764-2.461,1.764-2.461
								c-1.529-1.755-3.184-3.061-4.918-3.979C258.381,347.106,257.488,346.704,256.58,346.41z"/>
						</g>
						<g>
							<path style="fill:#FFFFFF;" d="M265.188,310.382l-14.518-15.431c0,0,0.07,1.32,0.246,3.238
								c0.196,1.935,0.555,4.485,1.01,6.939c0.502,2.505,1.049,4.873,1.559,6.669c0.5,1.791,0.865,2.945,0.865,2.945
								C258.896,314.4,262.596,312.831,265.188,310.382z"/>
							<path style="fill:#FFFFFF;" d="M241.141,331.174c-0.855-1.637-1.958-3.859-3.028-6.161c-1.045-2.284-2.007-4.626-2.724-6.427
								c-0.364-0.903-0.628-1.647-0.821-2.178c-0.19-0.529-0.299-0.832-0.299-0.832c-2.427,0.633-4.518,1.86-6.401,3.426
								c-1.78,1.601-3.337,3.554-4.341,5.742c-2.13,4.347-2.346,9.502-0.448,13.982l0.006,0.007l9.355,3.535l-6.56,18.359
								c0,0,4.436-2.771,8.468-5.681c2.032-1.458,4.011-3.064,5.438-4.224c1.41-1.181,2.35-1.969,2.35-1.969
								c-0.79-1.492-1.723-2.77-2.758-3.864l3.52,1.33c1.462-3.722,1.391-8.029-0.273-12.321
								C242.624,333.899,242.032,332.81,241.141,331.174z"/>
							<path style="fill:#FFFFFF;" d="M270.102,297.18c0.064-0.904,0.176-1.941,0.33-3.094c0.15-1.157,0.355-2.392,0.637-3.6
								c0.277-1.212,0.584-2.491,0.951-3.63c0.367-1.141,0.76-2.223,1.123-3.157c0.355-0.95,0.719-1.683,0.969-2.221
								c0.262-0.532,0.41-0.837,0.41-0.837c-4.867-2.186-11.09-1.365-15.728,1.571c-4.697,2.905-7.762,7.718-8.12,12.734
								l0.002,0.008l14.512,15.427c2.607-2.46,4.184-5.793,4.797-10.188C269.984,300.194,269.988,299.019,270.102,297.18z"/>
							<path style="fill:#FFFFFF;" d="M312.955,303.579c1.24,0.131,2.559,0.293,3.744,0.543c1.164,0.261,2.279,0.561,3.246,0.852
								c0.967,0.292,1.791,0.567,2.361,0.775c0.545,0.229,0.858,0.358,0.858,0.358c0.238-0.658,0.385-1.311,0.477-1.977
								c0.102-0.67,0.162-1.358,0.182-2.062c0.017-0.701,0.006-1.424-0.063-2.14c-0.098-0.69-0.234-1.389-0.408-2.087
								c-0.354-1.393-0.811-2.841-1.533-4.083c-0.701-1.259-1.471-2.569-2.436-3.633c-0.963-1.067-2.018-2.056-3.129-2.932
								c-1.188-0.857-2.475-1.597-3.779-2.176c-1.379-0.535-2.728-0.961-4.127-1.147c-1.426-0.163-2.781-0.204-4.131,0.018
								l-0.01,0.002l0.004-0.006c0,0-1.373,0.398-3.236,1.121c-0.922,0.347-2.02,0.887-3.094,1.438
								c-0.541,0.287-1.08,0.576-1.619,0.901c-0.545,0.344-1.08,0.699-1.594,1.062c-1.031,0.718-1.98,1.465-2.826,2.268
								c-0.844,0.791-1.545,1.492-2.125,2.183c-1.154,1.377-1.762,2.302-1.762,2.302c1.033,1.841,1.963,3.282,2.844,4.472
								c0.221,0.298,0.445,0.562,0.676,0.793c0.221,0.271,0.443,0.52,0.678,0.73c0.48,0.382,0.943,0.84,1.496,1.098
								c0.537,0.317,1.119,0.589,1.785,0.772c0.633,0.272,1.389,0.35,2.168,0.525c1.596,0.231,3.475,0.47,5.695,0.352
								c0,0,0.299-0.049,0.82-0.135c0.502-0.068,1.215-0.152,2.104-0.226C307.992,303.396,310.504,303.291,312.955,303.579z"/>
							<path style="fill:#FFFFFF;" d="M274.178,345.649c-0.439,0.075-0.877,0.179-1.311,0.308c-0.434,0.127-0.879,0.227-1.313,0.383
								c-0.869,0.3-1.723,0.708-2.559,1.225c-1.686,0.958-3.322,2.255-4.824,4.03c0,0-0.674,0.983-1.764,2.461
								c-1.088,1.46-2.617,3.485-4.264,5.373c-1.639,1.871-3.391,3.733-4.758,5.123c-0.684,0.698-1.266,1.272-1.67,1.646
								c-0.408,0.384-0.643,0.604-0.643,0.604c1.564,1.971,3.607,3.353,5.863,4.429c1.123,0.555,2.334,0.871,3.565,1.128
								c1.232,0.247,2.496,0.387,3.76,0.416c5.094-0.097,10.186-2.185,13.305-6.21l0.002-0.008l0.002,0.006
								c0,0,0.684-1.134,1.611-2.822c0.938-1.643,2.063-4.054,3.039-6.338c0.996-2.261,1.775-4.677,2.295-6.414
								c0.521-1.747,0.801-2.886,0.801-2.886C281.377,345.785,277.748,345.164,274.178,345.649z"/>
							<path style="fill:#FFFFFF;" d="M322.26,335.876l-0.004-0.008l0.006,0.003c0,0-0.135-0.313-0.373-0.86
								c-0.252-0.547-0.561-1.288-1.059-2.189c-0.49-0.896-1.078-1.906-1.736-2.923c-0.328-0.509-0.668-1.018-1.029-1.522
								c-0.391-0.513-0.795-1.017-1.201-1.503c-0.818-0.973-1.635-1.868-2.445-2.649c-0.863-0.79-1.676-1.457-2.373-1.991
								c-0.705-0.535-1.264-0.938-1.703-1.21c-0.441-0.266-0.693-0.416-0.693-0.416c-3.521,2.359-5.656,4.207-6.744,6.652
								c-1.078,2.429-1.24,5.646-0.57,9.98c0,0,0.1,0.292,0.217,0.781c0.121,0.493,0.291,1.205,0.469,2.087
								c0.18,0.882,0.367,1.934,0.531,3.097c0.135,1.133,0.223,2.351,0.281,3.614c0.146,2.559-0.014,5.091-0.201,7.062
								c-0.092,0.984-0.191,1.819-0.266,2.405c-0.088,0.569-0.139,0.894-0.139,0.894c1.285,0.228,2.56,0.186,3.881,0.057
								c0.656-0.071,1.315-0.18,1.975-0.323c0.654-0.147,1.283-0.386,1.922-0.628c1.256-0.521,2.549-1.081,3.688-1.924
								c1.146-0.832,2.26-1.743,3.242-2.795c0.953-1.099,1.816-2.28,2.559-3.504c0.691-1.288,1.242-2.643,1.658-3.985
								C322.889,341.299,323.02,338.487,322.26,335.876z"/>
						</g>
					</g>
					<path style="fill:#0D0F14;" d="M332.287,321.366c0.26-6.48-2.674-12.884-7.236-15.981c0.174-0.668,0.264-1.326,0.307-1.996
						c0.051-0.675,0.065-1.367,0.045-2.072c-0.021-0.704-0.07-1.428-0.166-2.15c-0.129-0.692-0.295-1.394-0.492-2.099
						c-0.742-2.877-2.264-5.551-4.221-7.916c-1.016-1.125-2.104-2.158-3.236-3.074c-1.223-0.897-2.512-1.683-3.828-2.308
						c-1.383-0.588-2.725-1.072-4.121-1.34c-1.422-0.245-2.77-0.385-4.121-0.292v0.001c-1.264-2.45-3.305-4.738-5.959-6.404
						c-0.662-0.415-1.353-0.809-2.066-1.176c-0.725-0.337-1.477-0.621-2.244-0.892c-1.529-0.578-3.147-0.839-4.772-1.049
						c-1.617-0.146-3.254-0.119-4.826,0.076c-1.559,0.26-3.107,0.554-4.496,1.148c-0.701,0.276-1.381,0.58-2.033,0.909
						c-0.65,0.336-1.248,0.746-1.83,1.15c-0.578,0.411-1.127,0.842-1.641,1.295c-0.494,0.483-0.957,0.984-1.383,1.502
						c-4.945-1.688-11.084-0.833-15.967,2.24c-4.924,3.057-7.951,7.767-8.713,12.54l3.077,3.272l-0.125-1.922
						c0.41-4.347,3.008-8.649,7.348-11.342c3.895-2.436,8.658-3.212,12.691-1.961c0,0-0.504,1.175-1.117,2.895
						c-0.316,0.842-0.605,1.901-0.9,2.979c-0.285,1.102-0.576,2.202-0.775,3.385c-0.428,2.326-0.676,4.561-0.752,6.282
						c-0.094,1.697-0.092,2.786-0.092,2.786c-0.533,3.916-1.953,7.057-4.48,9.437c-2.301,2.119-5.271,3.489-8.816,3.914
						c0,0-0.301-0.987-0.668-2.463c-0.367-1.473-0.873-3.526-1.23-5.565c-0.361-2.035-0.699-4.179-0.848-5.756
						c-0.162-1.585-0.238-2.674-0.238-2.674l-3.072-3.265c-1.229,0.137-2.495,0.38-3.666,0.785
						c-1.174,0.402-2.325,0.923-3.436,1.542c-2.146,1.276-4.117,2.956-5.647,4.938c-3.088,3.959-4.666,8.952-3.993,13.778
						c-2.262,0.788-4.235,2.075-6.058,3.685c-1.721,1.643-3.27,3.618-4.313,5.887c-2.203,4.51-2.438,9.528-0.984,13.922l4.2,1.587
						l-0.952-1.61c-1.64-3.938-1.546-8.526,0.441-12.602c1.742-3.697,4.826-6.521,8.44-7.901c0,0,0.441,1.111,1.105,2.778
						c0.661,1.644,1.593,3.807,2.61,5.93c0.997,2.117,2.025,4.164,2.862,5.701c0.829,1.513,1.381,2.521,1.381,2.521
						c1.422,3.659,1.58,7.432,0.34,10.897c-0.897-1.199-1.895-2.246-2.991-3.133c-1.515-1.32-3.219-2.308-5.114-2.922l-1.01,2.824
						c1.623,0.527,3.087,1.36,4.385,2.464c1.289,1.146,2.451,2.342,3.406,3.895c0,0-0.798,0.654-1.995,1.638
						c-0.615,0.486-1.333,1.054-2.102,1.662c-0.777,0.595-1.607,1.189-2.456,1.799c-3.374,2.429-7.03,4.761-7.03,4.761l-1.509,4.223
						c1.271,2.018,2.951,3.77,4.893,5.2c1.942,1.427,4.233,2.36,6.574,3.01c2.352,0.625,4.881,0.684,7.274,0.432
						c2.414-0.296,4.789-1.162,6.87-2.366c1.64,1.757,3.701,3.01,5.976,4.013c1.133,0.517,2.355,0.816,3.611,1.058
						c1.256,0.234,2.553,0.371,3.865,0.399c5.313-0.104,10.311-2.117,13.629-5.718l-0.721-4.433l-0.973,1.663
						c-1.383,1.737-3.176,3.004-5.229,4.01c-2.047,0.958-4.342,1.381-6.717,1.478c-2.129-0.049-4.201-0.441-6.084-1.138
						c-1.863-0.797-3.543-1.898-4.938-3.25c0,0,0.842-0.859,2.105-2.149c1.244-1.318,2.832-2.966,4.334-4.817
						c1.504-1.823,2.902-3.65,3.9-5.02c0.502-0.674,0.904-1.271,1.184-1.693c0.275-0.419,0.432-0.658,0.432-0.658
						c2.666-3.031,5.816-4.831,9.229-5.419c0.775-0.132,1.553-0.177,2.336-0.138c0.77,0.003,1.529,0.049,2.307,0.198
						c0.772,0.136,1.563,0.383,2.336,0.645c0.766,0.246,1.537,0.568,2.316,0.963c0,0-0.262,0.964-0.727,2.434
						c-0.449,1.507-1.184,3.355-2.002,5.294c-0.41,0.963-0.846,1.931-1.272,2.844c-0.43,0.905-0.859,1.699-1.236,2.409
						c-0.754,1.406-1.301,2.35-1.301,2.35l0.719,4.426c1.1,0.584,2.273,1.058,3.494,1.422c1.221,0.326,2.488,0.491,3.781,0.573
						c2.592,0.226,5.256-0.327,7.795-1.126c5.061-1.855,9.443-5.736,11.338-10.536c4.957,0.315,10.59-1.792,14.736-6.308
						c4.185-4.456,6.039-10.702,5.068-15.889l-4.103-1.825c0,0,0.203,0.452,0.404,0.903c0.195,0.463,0.391,0.926,0.391,0.926
						c1.123,4.447-0.316,9.947-3.969,13.855c-0.814,0.88-1.73,1.629-2.656,2.319c-0.469,0.336-0.93,0.674-1.426,0.945
						c-0.5,0.264-1.006,0.504-1.514,0.722c-1.02,0.429-2.039,0.778-3.07,0.99c-1.053,0.175-2.098,0.248-3.117,0.216
						c0,0,0.152-1.243,0.277-3.044c0.139-1.787,0.107-4.283-0.029-6.565c-0.152-2.327-0.576-4.634-0.91-6.231
						c-0.156-0.798-0.379-1.501-0.508-1.963c-0.141-0.466-0.221-0.732-0.221-0.732c-0.17-0.954-0.25-1.849-0.289-2.704
						c-0.086-0.882-0.1-1.704-0.027-2.47c0.018-0.19,0.041-0.379,0.07-0.563l0.039-0.566c0.037-0.371,0.098-0.728,0.182-1.07
						c0.072-0.347,0.217-0.668,0.303-1c0.088-0.334,0.201-0.655,0.34-0.966c0.979-2.241,2.863-3.927,5.443-5.787
						c0,0,0.783,0.529,1.951,1.484c1.142,0.949,2.502,2.344,3.877,3.983c1.268,1.602,2.416,3.411,3.256,4.871
						c0.752,1.417,1.209,2.448,1.209,2.448l4.096,1.821c0.576-0.36,1.142-0.76,1.697-1.195c0.551-0.435,1.02-0.95,1.508-1.477
						c0.934-1.075,1.912-2.233,2.563-3.6C331.328,327.752,332.172,324.582,332.287,321.366z M302.98,286.024l0.908-1.579
						l-0.91,1.584c0,0,0.484-0.177,0.953-0.305c0.477-0.131,0.953-0.264,0.953-0.264c1.139-0.126,2.392-0.158,3.578,0.042
						c1.176,0.202,2.428,0.516,3.588,1.018c1.129,0.518,2.32,1.145,3.342,1.923c1.004,0.783,1.965,1.677,2.852,2.659
						c3.102,3.721,4.654,8.528,3.781,12.798c0,0-1.225-0.422-2.996-0.888c-1.803-0.446-4.27-0.81-6.537-0.989
						c-2.385-0.115-4.668-0.006-6.287,0.146c-1.699,0.197-2.785,0.408-2.785,0.409c-0.969,0.045-1.877,0.018-2.728-0.067
						c-0.875-0.019-1.68-0.102-2.416-0.262c-0.758-0.109-1.459-0.255-2.086-0.514c-0.662-0.161-1.236-0.467-1.793-0.78
						c-1.99-1.134-3.359-3.001-4.988-5.787c0,0,0.148-0.204,0.414-0.511c0.267-0.313,0.66-0.761,1.168-1.293
						c1.023-1.106,2.5-2.368,4.238-3.576c0.859-0.587,1.75-1.092,2.641-1.578c0.893-0.486,1.762-0.901,2.506-1.199
						C301.883,286.386,302.98,286.024,302.98,286.024z M271.553,296.409c0.16-1.703,0.529-3.884,1.086-6.172
						c0.279-1.139,0.631-2.229,0.986-3.298c0.355-1.067,0.734-2.067,1.105-2.884c0.732-1.666,1.324-2.8,1.324-2.8
						c1.33-1.819,3.197-3.364,5.469-4.363c2.258-1.023,4.902-1.482,7.563-1.369c1.328,0.08,2.66,0.327,3.941,0.658
						c1.27,0.423,2.508,0.894,3.629,1.545c1.107,0.689,2.158,1.396,3.029,2.284c0.867,0.899,1.637,1.815,2.215,2.843
						c0.002,0-0.291,0.09-0.822,0.315c-0.525,0.215-1.268,0.531-2.115,0.932c-1.684,0.756-3.844,2.063-5.674,3.459
						c-0.936,0.745-1.799,1.508-2.547,2.233c-0.752,0.738-1.406,1.51-1.926,2.136c-1.035,1.244-1.604,2.19-1.604,2.19
						c-2.391,2.77-4.426,4.502-6.885,5.31c-2.443,0.795-5.42,0.756-8.994-0.274C271.334,299.153,271.379,298.081,271.553,296.409z
						 M241.96,329.599c-0.766-1.524-1.819-3.627-2.734-5.738c-0.925-2.112-1.858-4.317-2.465-5.965
						c-0.609-1.67-1.015-2.784-1.015-2.784c-0.884-4.175,0.246-8.53,2.743-12.011c2.483-3.484,6.465-5.965,10.703-6.497
						c0,0,0.103,1.219,0.333,3.007c0.219,1.783,0.576,4.114,1.074,6.419c0.239,1.147,0.488,2.271,0.748,3.318
						c0.271,1.062,0.537,2.036,0.771,2.862c0.471,1.653,0.811,2.72,0.811,2.72c0.705,3.94,0.039,7.446-1.598,10.437
						c-1.692,2.94-4.381,5.375-8.064,6.756C243.268,332.122,242.745,331.112,241.96,329.599z M243.374,346.401
						c-0.249,0.13-0.499,0.25-0.748,0.393c-0.193-0.315-0.4-0.608-0.606-0.906L243.374,346.401z M260.67,354.006
						c-0.521,0.681-1.141,1.487-1.826,2.328c-0.686,0.813-1.436,1.68-2.207,2.545c-1.539,1.721-3.184,3.471-4.451,4.714
						c-1.284,1.22-2.14,2.032-2.14,2.032c-0.871,0.607-1.801,1.118-2.776,1.533c-0.975,0.42-1.993,0.743-3.013,0.902
						c-2.046,0.344-4.203,0.357-6.258-0.065c-2.035-0.47-4.001-1.287-5.741-2.407c-1.716-1.178-3.184-2.711-4.309-4.463
						c0,0,0.997-0.653,2.492-1.635c1.486-1.007,3.395-2.271,5.282-3.713c3.783-2.846,7.182-5.789,7.183-5.789
						c1.671-1.142,3.393-1.916,5.108-2.332c0.857-0.189,1.716-0.348,2.567-0.442c0.853-0.083,1.699-0.078,2.533,0.016
						c3.332,0.319,6.504,1.826,9.242,4.496C262.355,351.726,261.709,352.638,260.67,354.006z M302.389,347.48
						c0.014,2.288-0.148,4.66-0.336,6.495c-0.213,1.787-0.438,2.982-0.439,2.981c-0.332,1.046-0.791,2.061-1.355,3.035
						c-0.578,0.94-1.283,1.787-2.063,2.603c-1.547,1.678-3.514,2.845-5.603,3.761c-1.043,0.467-2.148,0.703-3.25,0.928
						c-1.107,0.188-2.215,0.358-3.326,0.295c-1.107-0.051-2.199-0.197-3.256-0.445c-1.055-0.241-2.07-0.587-3.035-1.113
						c0,0,0.147-0.262,0.404-0.721c0.256-0.446,0.611-1.121,1.018-1.944c0.816-1.633,1.822-3.795,2.691-5.922
						c0.854-2.226,1.563-4.409,2.029-6.022c0.242-0.796,0.408-1.491,0.52-1.98c0.109-0.483,0.172-0.76,0.172-0.76
						c0.658-1.858,1.568-3.326,2.502-4.698c0.477-0.668,1.018-1.23,1.568-1.759c0.525-0.559,1.096-1.036,1.715-1.436
						c2.398-1.672,5.381-2.328,8.973-2.26c0,0,0.26,1.05,0.553,2.727C302.119,342.881,302.322,345.106,302.389,347.48z
						 M301.533,326.649c-1.029,2.307-1.133,5.296-0.688,9.224c-4.068-0.134-7.15,0.474-9.734,2.137
						c-2.574,1.664-4.801,4.264-6.475,8.188c-3.707-1.927-7.133-2.521-10.699-2.03c-0.44,0.076-0.873,0.178-1.301,0.305
						c-0.43,0.118-0.869,0.215-1.293,0.362c-0.854,0.283-1.682,0.666-2.492,1.143c-1.639,0.877-3.217,2.044-4.69,3.596
						c-1.547-1.577-3.176-2.742-4.871-3.58c-0.853-0.463-1.721-0.831-2.603-1.102c-0.883-0.282-1.777-0.409-2.695-0.579
						c-3.013-0.401-6.197,0.075-9.369,1.482c1.126-3.511,0.992-7.289-0.176-11.023c4.11-1.607,7.246-4.197,9.195-7.409
						c1.932-3.242,2.773-7.049,2.295-11.37c4.166-0.577,7.69-2.066,10.277-4.519c2.604-2.454,4.082-5.602,4.84-9.565
						c4.01,1.065,7.244,1.231,9.734,0.524c2.525-0.714,4.406-2.472,6.967-5.26c0.943,1.607,1.771,2.898,2.557,3.977
						c0.197,0.272,0.397,0.512,0.603,0.721c0.199,0.242,0.397,0.478,0.609,0.67c0.434,0.347,0.859,0.774,1.377,1.014
						c0.502,0.301,1.045,0.546,1.66,0.719c0.588,0.256,1.287,0.314,2.004,0.49c1.469,0.216,3.191,0.481,5.197,0.454
						c-0.627,4.018-0.588,6.882,0.236,9.032c0.826,2.164,2.705,3.841,5.627,6.286C304.555,322.702,302.56,324.326,301.533,326.649z
						 M323.057,333.537c0-0.001-0.582-1.177-1.529-2.772c-0.885-1.58-2.408-3.615-3.928-5.333c-0.727-0.86-1.646-1.684-2.428-2.385
						c-0.803-0.706-1.551-1.305-2.201-1.785c-1.404-0.964-2.334-1.472-2.334-1.472c-1.381-1.111-2.721-2.141-3.563-3.167
						c-0.52-0.504-0.938-1.007-1.254-1.528c-0.303-0.524-0.703-1.032-0.896-1.592c-0.178-0.564-0.418-1.129-0.559-1.742
						c-0.139-0.612-0.143-1.29-0.246-1.971c-0.06-0.691-0.039-1.439,0.053-2.249c0.021-0.781,0.1-1.612,0.26-2.505
						c0,0,1.059-0.138,2.748-0.224c0.865-0.055,1.801-0.045,2.848,0.005c1.047,0.047,2.193,0.141,3.367,0.284
						c2.293,0.307,4.58,0.934,6.395,1.494c1.715,0.606,2.871,1.143,2.871,1.143c0.49,0.302,0.967,0.638,1.43,1.007
						c0.471,0.366,0.912,0.771,1.285,1.224c0.779,0.893,1.49,1.908,2.113,3.01c1.096,2.235,1.836,4.845,1.813,7.491
						C329.385,325.782,326.898,330.954,323.057,333.537z"/>
				</g>
				<g>
					<g>
						<path style="fill:#7153B5;" d="M249.068,272.688c0,0,0.536,1.163,1.34,2.908c0.391,0.894,0.846,1.936,1.334,3.053
							c0.461,1.119,0.945,2.328,1.422,3.554c1.91,4.886,3.449,10.045,3.449,10.045c0.861,5.147-0.73,10.579-3.928,14.837
							c-3.185,4.268-7.979,7.291-13.151,7.918c0,0-0.569-5.358-1.537-10.502c-0.949-5.183-2.259-10.132-2.259-10.132
							c-0.59-4.866,0.517-9.441,2.835-13.221C240.903,277.373,244.453,274.345,249.068,272.688z"/>
					</g>
					<g>
						<g>
							<g>
								<path style="fill:#7153B5;" d="M261.006,224.076c0,0,0.973,0.817,2.434,2.045c1.439,1.25,3.463,2.986,5.289,4.814
									c1.852,1.822,3.75,3.753,5.076,5.237c1.326,1.509,2.211,2.515,2.211,2.515c2.92,4.391,3.576,10.117,2.295,15.387
									c-1.264,5.281-4.65,9.959-9.166,12.512c0,0-0.645-1.2-1.635-2.945c-0.988-1.746-2.316-4.017-3.773-6.227
									c-1.422-2.206-2.885-4.322-4.063-5.883c-1.156-1.532-1.93-2.553-1.93-2.553C252.957,240.543,254.15,230.977,261.006,224.076
									z"/>
							</g>
							<g>
								<path style="fill:#FFFFFF;" d="M235.739,294.368c-4.845,0.781-8.914,3.146-11.895,6.407
									c-1.48,1.646-2.694,3.515-3.563,5.569c-0.434,1.03-0.786,2.101-1.04,3.204c-0.13,0.561-0.229,1.107-0.308,1.683
									c-0.055,0.544-0.162,1.167-0.063,1.639l0.003,0.007l13.458,16.355l0.55-0.472l0.432-0.395
									c0.273-0.258,0.54-0.519,0.78-0.774c0.501-0.519,0.949-1.047,1.377-1.592c0.848-1.087,1.566-2.235,2.159-3.429
									c1.174-2.394,1.851-4.959,1.906-7.569c0,0-0.569-5.358-1.537-10.502C237.048,299.317,235.739,294.368,235.739,294.368z"/>
								<path style="fill:#FFFFFF;" d="M281.137,215.449c-0.793-1.25-14.459-3.625-17.709-3.875s-4.582,1.75-4.666,4.583
									c-0.07,2.373-0.885,4.778,2.273,7.919h-0.029c0,0,0.078,0.065,0.213,0.179c0.447,0.429,0.975,0.871,1.582,1.329
									c0.201,0.17,0.412,0.346,0.639,0.537c1.439,1.25,3.463,2.986,5.289,4.814c1.852,1.822,3.75,3.753,5.076,5.237
									c1.326,1.509,2.211,2.515,2.211,2.515c3.787-3.33,5.813-8.384,6.123-13.568l0.053-0.002
									C282.344,221.116,281.928,216.699,281.137,215.449z"/>
								<path style="fill:#FFFFFF;" d="M267.51,263.64c-0.988-1.746-2.316-4.017-3.773-6.227c-1.422-2.206-2.885-4.322-4.063-5.883
									c-1.156-1.532-1.93-2.553-1.93-2.553c-4.131,2.572-6.999,6.191-8.481,10.306c-1.517,4.103-1.725,8.739-0.193,13.399
									l0.004,0.008l-0.006-0.003c0,0,0.536,1.163,1.34,2.908c0.391,0.894,0.846,1.936,1.334,3.053
									c0.461,1.119,0.945,2.328,1.422,3.554c1.91,4.886,3.449,10.045,3.449,10.045c4.955-1.557,9.129-5.422,11.486-10.246
									c2.359-4.822,2.854-10.536,1.045-15.416C269.145,266.585,268.5,265.385,267.51,263.64z"/>
							</g>
						</g>
						<path style="fill:#0D0F14;" d="M283.689,225.174c0.107-2.771-0.025-8.538-1.287-10.527
							c-1.527-2.412-18.691-4.555-18.859-4.567c-1.826-0.142-3.301,0.291-4.404,1.282c-1.184,1.064-1.815,2.662-1.877,4.752
							c-0.01,0.349-0.039,0.698-0.066,1.051c-0.154,1.936-0.326,4.217,1.799,6.882h-0.006c-6.152,7.028-7.281,16.063-3.203,24.443
							c-3.693,2.645-6.432,6.111-7.929,10.276c-1.538,4.154-1.749,8.593-0.601,13.034l2.596,1.271l-2.596-1.27
							c-4.32,1.883-7.667,4.895-9.935,8.574c-2.261,3.682-3.447,8.068-3.195,12.779c-4.477,1.027-8.372,3.306-11.392,6.613
							c-1.502,1.668-2.708,3.501-3.596,5.468c-0.442,0.986-0.812,2.001-1.092,3.035c-0.145,0.526-0.257,1.031-0.357,1.565
							c-0.067,0.497-0.215,1.088-0.105,1.477l2.853,3.468c0,0-0.029-0.096-0.057-0.254c-0.016-0.169-0.037-0.395-0.059-0.619
							c-0.037-0.46-0.074-0.919-0.074-0.919c0.239-4.167,1.869-8.071,4.707-11.205c2.573-2.831,5.887-4.778,9.645-5.647
							c0,0.001,1.157,4.623,1.972,9.419c0.858,4.785,1.352,9.74,1.352,9.74c-0.086,2.275-0.661,4.556-1.722,6.7
							c-0.526,1.075-1.175,2.113-1.946,3.108c-0.384,0.496-0.802,0.983-1.259,1.46c-0.221,0.234-0.473,0.478-0.721,0.714
							l-0.399,0.365l-0.501,0.431l1.906,2.316l0.584-0.501l0.451-0.41c0.287-0.268,0.562-0.536,0.811-0.797
							c0.52-0.532,0.979-1.065,1.421-1.613c0.872-1.093,1.612-2.231,2.234-3.402c1.231-2.347,1.999-4.816,2.248-7.31
							c5.04-1.027,9.674-4.133,12.844-8.378c3.183-4.237,4.894-9.54,4.455-14.67c4.617-1.867,8.668-5.649,11.113-10.649
							c2.443-4.999,2.951-10.57,1.596-15.38c4.248-2.882,7.451-7.584,8.715-12.848c1.277-5.254,0.789-10.919-1.736-15.481
							c3.281-3.386,5.203-8.173,5.59-13.364C283.652,225.456,283.684,225.319,283.689,225.174z M251.865,305.625
							c-2.61,3.74-6.542,6.548-10.904,7.5c-0.001,0-0.601-4.935-1.561-9.706c-0.915-4.78-2.164-9.379-2.164-9.379
							c-0.963-8.422,3.473-16.036,11.041-19.413c0,0,0.491,1.093,1.227,2.731c0.694,1.639,1.607,3.867,2.47,6.154
							c0.83,2.263,1.641,4.6,2.201,6.362c0.543,1.772,0.906,2.953,0.906,2.953C255.762,297.254,254.492,301.897,251.865,305.625z
							 M266.752,281.342c-2.024,4.069-5.268,7.214-9.08,8.804c0,0.001-1.344-4.277-2.971-8.375
							c-0.777-2.039-1.656-4.061-2.311-5.546c-0.664-1.469-1.105-2.448-1.107-2.452l0.004,0.002l-0.825-1.715
							c-1.313-4.09-1.268-8.334,0.209-12.26c1.268-3.57,3.626-6.547,6.719-8.775c0,0,0.728,0.945,1.77,2.406
							c1.02,1.453,2.365,3.44,3.686,5.508c1.279,2.05,2.51,4.169,3.428,5.798c0.467,0.815,0.82,1.492,1.074,1.971
							c0.252,0.479,0.396,0.753,0.396,0.753C269.314,271.758,268.938,276.81,266.752,281.342z M277,253.042
							c-1.004,4.523-3.516,8.719-7.252,11.248c0,0-0.611-1.075-1.531-2.689c-0.922-1.594-2.262-3.704-3.584-5.72
							c-1.303-2.017-2.777-3.993-3.826-5.419c-1.068-1.433-1.797-2.354-1.797-2.354c-1.111-1.828-1.797-3.724-2.217-5.641
							c-0.469-1.926-0.475-3.846-0.346-5.751c0.088-0.95,0.262-1.89,0.523-2.814c0.234-0.926,0.521-1.84,0.916-2.73
							c0.377-0.891,0.885-1.757,1.4-2.599c0.518-0.84,1.121-1.651,1.809-2.424c0.125,0.105,0.238,0.207,0.371,0.312
							c0.387,0.331,1.051,0.903,1.893,1.625c1.385,1.188,3.084,2.815,4.818,4.534c0.863,0.857,1.727,1.734,2.529,2.572
							c0.771,0.85,1.492,1.643,2.109,2.322c1.228,1.406,2.047,2.344,2.047,2.344c1.256,1.909,1.938,4.05,2.338,6.314
							C277.56,248.428,277.447,250.769,277,253.042z M279.435,230.918c-0.82,2.025-1.891,3.862-3.299,5.393
							c0,0-0.184-0.208-0.508-0.574c-0.338-0.361-0.82-0.877-1.398-1.497c-1.16-1.227-2.711-2.82-4.27-4.342
							c-3.225-3.071-6.49-5.786-6.49-5.786l-0.137-0.002c-3.459-2.721-3.318-4.58-3.149-6.707c0.031-0.403,0.063-0.803,0.074-1.201
							c0.025-0.851,0.199-1.994,0.885-2.609c0.467-0.421,1.199-0.598,2.168-0.523c3.633,0.279,14.779,2.379,16.643,3.352
							c0.41,0.959,0.842,4.135,0.758,7.943h-0.021C280.596,226.661,280.215,228.89,279.435,230.918z"/>
					</g>
				</g>
				<g>
					
						<path style="fill:#FFFFFF;stroke:#0D0F14;stroke-width:3;stroke-linecap:round;stroke-linejoin:round;stroke-miterlimit:10;" d="
						M120.743,310.664c0,0-10.25,9.084-10.75,11.084s0.499,14.26,0.833,15.255c0.333,0.995,4.833,2.655,6.333,2.533
						c1.5-0.122,4-2.533,4-2.533s1.667,2.917,3.417,2.539s5-5.42,5-5.42h5.833v-23.458H120.743z"/>
					
						<path style="fill:#5C5E6E;stroke:#0D0F14;stroke-width:3;stroke-linecap:round;stroke-linejoin:round;stroke-miterlimit:10;" d="
						M121.076,300.914l-9.667,6.5c3.084,13.084,17.25,33.584,28,42.167l9.917-4.583L121.076,300.914z"/>
					
						<path style="fill:#FFFFFF;stroke:#0D0F14;stroke-width:3;stroke-linecap:round;stroke-linejoin:round;stroke-miterlimit:10;" d="
						M167.243,253.247c-20.167,19-52.167,47.667-52.167,47.667c0,1.333,13.696,37.565,34,49.692h21.918v-97.359H167.243z"/>
					
						<path style="fill:none;stroke:#0D0F14;stroke-width:3;stroke-linecap:round;stroke-linejoin:round;stroke-miterlimit:10;stroke-dasharray:7;" d="
						M119.743,297.705c0,0,11.097,29.273,28.215,45.158"/>
				</g>
				<g>
					<g id="XMLID_15_">
						<g>
							<path style="fill:#FFFFFF;" d="M262.469,410.259c1.484,0.326,3.982,2.035,3.498,3.262
								c-0.473,1.228-12.889,31.886-14.547,33.384c-1.659,1.508-4.08-0.117-4.536-0.982
								C246.884,445.922,258.582,419.323,262.469,410.259z"/>
							<path style="fill:#333645;" d="M232.017,426.347l13.156-22.315c0,0,14.114,4.814,17.295,6.227
								c-3.887,9.064-15.584,35.663-15.584,35.663c-0.457-0.854-3.813-7.113-5.552-12.298L232.017,426.347z"/>
							<g>
								<path style="fill:#0D0F14;" d="M240.452,432.413c0,0,0.413-0.275,1.099-0.685c0.339-0.203,0.735-0.441,1.159-0.696
									c0.421-0.259,0.894-0.493,1.354-0.749c0.463-0.248,0.926-0.496,1.36-0.729c0.462-0.203,0.893-0.394,1.262-0.557
									c0.735-0.321,1.226-0.535,1.226-0.535c0.509-0.223,1.103,0.01,1.325,0.52c0.206,0.471,0.023,1.014-0.409,1.269l-0.127,0.075
									c0,0-0.42,0.249-1.05,0.623c-0.313,0.185-0.678,0.399-1.07,0.631c-0.382,0.268-0.789,0.555-1.196,0.841
									c-0.403,0.292-0.819,0.562-1.184,0.852c-0.367,0.285-0.709,0.551-1.002,0.778c-0.584,0.449-0.985,0.791-0.985,0.791
									c-0.632,0.538-1.581,0.463-2.12-0.17c-0.538-0.632-0.463-1.581,0.169-2.12c0.043-0.037,0.088-0.071,0.134-0.102
									L240.452,432.413z"/>
							</g>
						</g>
						<g>
							
								<path style="fill:none;stroke:#0D0F14;stroke-width:3;stroke-linecap:round;stroke-linejoin:round;stroke-miterlimit:10;" d="
								M262.469,410.259c-3.182-1.413-17.295-6.227-17.295-6.227l-13.156,22.315l9.315,7.277c1.738,5.185,5.095,11.444,5.552,12.298
								c0.456,0.865,2.877,2.49,4.536,0.982c1.658-1.498,14.074-32.155,14.547-33.384
								C266.451,412.294,263.953,410.585,262.469,410.259z"/>
							
								<path style="fill:none;stroke:#0D0F14;stroke-width:3;stroke-linecap:round;stroke-linejoin:round;stroke-miterlimit:10;" d="
								M246.884,445.922c0,0,11.698-26.599,15.584-35.663"/>
						</g>
					</g>
					<g>
						<path style="fill:#5C5E6E;" d="M174.518,401.139c0,0,17.25,25.742,23.625,30.371s27.374,1.129,27.999,1.254
							s3.702-3.874,3.702-3.874l6.073,0.504c0,0,11.512-13.798,14.931-23.401l-3.964-3.353c0,0-2.117-10.34-2.867-10.982
							c-0.75-0.643-6.375-0.893-6.375-0.893l-16.575-25.5h-46.549V401.139z"/>
						<path style="fill:#464854;" d="M229.376,378.048l-8.31-12.784h-46.549v35.875c0,0,17.25,25.742,23.625,30.371
							c1.225,0.89,2.992,1.477,5.048,1.849c4.917-8.722,17.54-31.429,21.622-41.868
							C226.782,386.452,228.341,382.074,229.376,378.048z"/>
						<path style="fill:none;stroke:#0D0F14;stroke-width:3;stroke-linecap:round;stroke-linejoin:round;stroke-miterlimit:10;" d="
							M174.518,401.139c0,0,17.25,25.742,23.625,30.371s27.374,1.129,27.999,1.254s3.702-3.874,3.702-3.874l6.073,0.504
							c0,0,11.512-13.798,14.931-23.401l-3.964-3.353c0,0-2.117-10.34-2.867-10.982c-0.75-0.643-6.375-0.893-6.375-0.893
							l-16.575-25.5h-46.549V401.139z"/>
					</g>
					<path style="fill:none;stroke:#0D0F14;stroke-width:3;stroke-linecap:round;stroke-linejoin:round;stroke-miterlimit:10;" d="
						M229.844,428.89c0,0,10.782-12.876,17.04-26.251"/>
				</g>
				<g id="XMLID_14_">
					<g>
						<path style="fill:#FFFFFF;" d="M138.489,460.501c-0.25,1.5-1.83,4.08-3.08,3.66c-1.25-0.41-32.5-11.25-34.08-12.83
							c-1.59-1.58-0.09-4.08,0.75-4.58C102.079,446.751,129.239,457.081,138.489,460.501z"/>
						<path style="fill:#333645;" d="M119.579,433.081l24.25,9.83c0,0-4.09,14.34-5.34,17.59c-9.25-3.42-36.41-13.75-36.41-13.75
							c0.83-0.5,6.91-4.17,12-6.17L119.579,433.081z"/>
						<g>
							<path style="fill:#0D0F14;" d="M115.244,439.64c0,0,0.296,0.4,0.739,1.064c0.221,0.328,0.479,0.711,0.755,1.122
								c0.279,0.407,0.538,0.868,0.816,1.314c0.271,0.45,0.543,0.899,0.798,1.321c0.227,0.451,0.438,0.872,0.62,1.232
								c0.358,0.718,0.597,1.196,0.597,1.196c0.249,0.498,0.046,1.103-0.451,1.351c-0.46,0.23-1.011,0.074-1.288-0.344l-0.081-0.122
								c0,0-0.271-0.407-0.676-1.018c-0.2-0.303-0.434-0.657-0.685-1.036c-0.287-0.368-0.594-0.76-0.9-1.151
								c-0.312-0.388-0.603-0.789-0.911-1.139c-0.303-0.352-0.586-0.681-0.829-0.962c-0.478-0.561-0.839-0.943-0.839-0.943
								c-0.57-0.605-0.543-1.557,0.062-2.127c0.604-0.569,1.556-0.542,2.126,0.063c0.039,0.041,0.075,0.084,0.109,0.129
								L115.244,439.64z"/>
						</g>
					</g>
					<g>
						<path style="fill:none;stroke:#0D0F14;stroke-width:3;stroke-linecap:round;stroke-linejoin:round;stroke-miterlimit:10;" d="
							M138.489,460.501c1.25-3.25,5.34-17.59,5.34-17.59l-24.25-9.83l-5.5,7.5c-5.09,2-11.17,5.67-12,6.17
							c-0.84,0.5-2.34,3-0.75,4.58c1.58,1.58,32.83,12.42,34.08,12.83C136.659,464.581,138.239,462.001,138.489,460.501z"/>
						<path style="fill:none;stroke:#0D0F14;stroke-width:3;stroke-linecap:round;stroke-linejoin:round;stroke-miterlimit:10;" d="
							M102.079,446.751c0,0,27.16,10.33,36.41,13.75"/>
					</g>
				</g>
				<g>
					<g>
						<path style="fill:#5C5E6E;" d="M143.409,337.198c0,0-30.5,70.716-31.333,74.55c-0.833,3.834,7,15.667,7,15.667
							s-2.333,7.166-2.333,7.833c0,0.667,12.978,9.333,28.239,11.5c2.094-2.333,4.094-8,4.094-8s20.167,0.001,26-4.666
							c1.5-4.667,2.333-7.667,2.333-7.667s26.667-26.001,35.167-37.167c8.5-11.166,13.176-18.832,13.338-28.666
							c0.162-9.834,0-23.384,0-23.384H143.409z"/>
						<path style="fill:#464854;" d="M212.576,389.248c5.63-7.395,9.569-13.256,11.643-19.227
							c-0.382-17.428-1.143-31.273-1.143-31.273s0.36-0.626,0.872-1.55h-74.604l-19.03,30.537
							c-4.378,10.263-9.031,21.231-12.545,29.675c2.362,2.795,6.282,6.453,12.483,9.756c0,0,26.658-39.919,37.491-55.752
							c1.5,14.5-6.789,56.192-6.625,57.765c0.165,1.572,0.458,4.88,4.399,5.581c1.757,0.313,10.738,1.406,21.377,2.236
							C195.425,408.412,207.384,396.067,212.576,389.248z"/>
						<path style="fill:none;stroke:#0D0F14;stroke-width:3;stroke-linecap:round;stroke-linejoin:round;stroke-miterlimit:10;" d="
							M143.409,337.198c0,0-30.5,70.716-31.333,74.55c-0.833,3.834,7,15.667,7,15.667s-2.333,7.166-2.333,7.833
							c0,0.667,12.978,9.333,28.239,11.5c2.094-2.333,4.094-8,4.094-8s20.167,0.001,26-4.666c1.5-4.667,2.333-7.667,2.333-7.667
							s26.667-26.001,35.167-37.167c8.5-11.166,13.176-18.832,13.338-28.666c0.162-9.834,0-23.384,0-23.384H143.409z"/>
					</g>
					<path style="fill:none;stroke:#0D0F14;stroke-width:3;stroke-linecap:round;stroke-linejoin:round;stroke-miterlimit:10;" d="
						M119.076,427.415c0,0,13.917,7.25,30,11.333"/>
				</g>
				
					<path style="fill:#FFFFFF;stroke:#0D0F14;stroke-width:3;stroke-linecap:round;stroke-linejoin:round;stroke-miterlimit:10;" d="
					M145.244,218.195c9.04-0.989,24.415-1.114,27.415,10.886h43.124v-18.875c0,0,20.125-19.124,15.25-47.249
					c-4.875-28.126-40.747-46.871-66.999-33.726c-26.253,13.145-27.485,48.725-27.805,49.975c-0.32,1.25-2.945,5-5.695,7.063
					c-0.75,4.688,3.875,9.313,7,10.813C137.909,200.331,140.329,212.935,145.244,218.195z"/>
				
					<path style="fill:#5C5E6E;stroke:#0D0F14;stroke-width:3;stroke-linecap:round;stroke-linejoin:round;stroke-miterlimit:10;" d="
					M170.011,242.581c0,0-12.669,19.333-16.385,35.333v13.334h82.783v-27.667c0,0-10.5-17.125-15.625-23.375s-6.125-6.75-6.125-6.75
					h-40.124L170.011,242.581z"/>
				
					<path style="fill:#5C5E6E;stroke:#0D0F14;stroke-width:3;stroke-linecap:round;stroke-linejoin:round;stroke-miterlimit:10;" d="
					M171.529,226.064c0,0-3.036,1.597-3.036,2.434c0,2.5,0,11.917,0,12.667s1.518,1.416,1.518,1.416s30.981-11.333,50.148-12.916
					c0,0-3-15.167-3.333-16c-0.333-0.834-1.727-1.795-3.083-1.667C212.386,212.127,188.648,218.048,171.529,226.064z"/>
				<g id="XMLID_12_">
					<g>
						<path style="fill:#FFFFFF;" d="M244.588,135.302c2.511,2.729,3.2,7.359,1.9,11.22c-0.93,2.78-2.88,5.16-5.93,6.13h-0.011
							c-0.33-3-0.88-6.01-1.609-8.97C241.949,141.781,243.869,138.671,244.588,135.302z"/>
						<path style="fill:#FFFFFF;" d="M233.979,109.071c4.93,1.68,8.01,7.01,7.18,13.26c-0.02,0.16-0.04,0.32-0.08,0.48
							c-0.98,6.04-5.29,11.02-5.29,11.02c-1.56-3.93-3.42-7.649-5.52-11.02v-0.01C233.088,118.541,234.258,113.241,233.979,109.071z
							"/>
						<path style="fill:#7153B5;" d="M246.489,146.521c4.25,4.48,2.74,12.58-0.75,14.74c-1.8-1.721-3.48-3.16-4.83-4.19
							c-0.06-1.47-0.18-2.94-0.36-4.42h0.011C243.609,151.682,245.559,149.302,246.489,146.521z"/>
						<path style="fill:#7153B5;" d="M241.079,122.812c3.36,3.18,4.46,8.06,3.51,12.49c-0.72,3.369-2.64,6.479-5.649,8.38
							c-0.82-3.37-1.891-6.681-3.15-9.85C235.789,133.831,240.099,128.852,241.079,122.812z"/>
						<path style="fill:#7153B5;" d="M233.979,109.071c0.279,4.17-0.891,9.47-3.71,13.731c-3.98-6.4-8.801-11.53-13.98-14.391
							c1-4.21,8.5-8.21,15.62-5.21c0.12,0.13,0.24,0.26,0.35,0.41C233.248,104.852,233.829,106.802,233.979,109.071z"/>
						<path style="fill:#333645;" d="M282.828,85.251c9.08,1.83,12.08,11.41,7.41,22.16c-4.66,10.75-11.58,33.95-15.209,48.311
							c-3.621,14.359-5.68,21.859-17.711,19.859c-3.109-5.359-7.64-10.54-11.58-14.319c3.49-2.16,5-10.261,0.75-14.74
							c1.3-3.86,0.61-8.49-1.9-11.22c0.95-4.431-0.149-9.311-3.51-12.49c0.04-0.16,0.061-0.32,0.08-0.48
							c0.83-6.25-2.25-11.58-7.18-13.26c-0.15-2.269-0.731-4.22-1.721-5.46C245.579,90.751,273.738,83.411,282.828,85.251z"/>
						<path style="fill:#333645;" d="M240.909,157.071c1.35,1.03,3.03,2.47,4.83,4.19c3.939,3.779,8.47,8.96,11.58,14.319
							c2.02,3.49,3.439,7.061,3.711,10.38c0.879,10.74-12.371,32.62-28.501,33.37c-16.12,0.75-29.12-13.37-31.74-25.15
							c14.24-4.27,16.62-18.721,13.999-28.48c-7.38-0.5-15.999,2.88-20.16,11.26c-27.41-10.37-40.84-30.88-41.13-51.76
							c6.91-8.62,30.66-23.97,62.79-16.79c5.18,2.86,10,7.99,13.98,14.391v0.01c2.1,3.37,3.96,7.09,5.52,11.02
							c1.26,3.17,2.33,6.48,3.15,9.85c0.729,2.96,1.279,5.97,1.609,8.97C240.729,154.131,240.849,155.602,240.909,157.071z"/>
						<g>
							<path style="fill:#0D0F14;" d="M207.275,175.237c-0.326,0.231-0.677,0.508-1.003,0.782c-0.329,0.278-0.648,0.567-0.956,0.865
								c-0.616,0.596-1.182,1.233-1.678,1.9c-0.992,1.329-1.678,2.824-1.741,4.238l0,0l-1.82-1.653
								c0.73-0.124,1.493-0.165,2.27-0.063c0.773,0.101,1.568,0.353,2.271,0.809c0.35,0.23,0.671,0.505,0.949,0.818
								c0.273,0.318,0.505,0.663,0.681,1.026c0.355,0.729,0.502,1.494,0.534,2.218c0.026,0.587-0.43,1.084-1.017,1.11
								c-0.543,0.023-1.008-0.363-1.096-0.885l-0.007-0.041c-0.084-0.49-0.242-0.931-0.472-1.276
								c-0.114-0.174-0.249-0.32-0.392-0.451c-0.148-0.125-0.309-0.228-0.483-0.313c-0.703-0.331-1.65-0.31-2.572-0.027
								c-0.753,0.23-1.55-0.194-1.781-0.947c-0.057-0.187-0.074-0.377-0.056-0.561l0.016-0.146v-0.001
								c0.403-2.195,1.602-3.964,2.935-5.368c0.676-0.706,1.4-1.34,2.159-1.914c0.38-0.287,0.767-0.56,1.164-0.818
								c0.401-0.26,0.793-0.501,1.237-0.739c0.407-0.219,0.915-0.066,1.134,0.341c0.203,0.376,0.087,0.839-0.253,1.079
								L207.275,175.237z"/>
						</g>
					</g>
					<g>
						<path style="fill:none;stroke:#0D0F14;stroke-width:3;stroke-linecap:round;stroke-linejoin:round;stroke-miterlimit:10;" d="
							M230.269,122.812c2.1,3.37,3.96,7.09,5.52,11.02c1.26,3.17,2.33,6.48,3.15,9.85c0.729,2.96,1.279,5.97,1.609,8.97
							c0.181,1.48,0.301,2.95,0.36,4.42"/>
						<path style="fill:none;stroke:#0D0F14;stroke-width:3;stroke-linecap:round;stroke-linejoin:round;stroke-miterlimit:10;" d="
							M238.669,155.207c0.795,0.715,1.547,1.34,2.239,1.864c1.35,1.03,3.03,2.47,4.83,4.19c3.939,3.779,8.47,8.96,11.58,14.319
							c2.02,3.49,3.439,7.061,3.711,10.38c0.879,10.74-12.371,32.62-28.501,33.37c-16.12,0.75-29.12-13.37-31.74-25.15
							c14.24-4.27,16.62-18.721,13.999-28.48c-7.38-0.5-15.999,2.88-20.16,11.26c-27.41-10.37-40.84-30.88-41.13-51.76
							c6.91-8.62,30.66-23.97,62.79-16.79c5.18,2.86,10,7.99,13.98,14.391"/>
						<g>
							<path style="fill:#0D0F14;" d="M220.297,124.944c0,0,0.189,0.529,0.522,1.457c0.166,0.463,0.368,1.026,0.599,1.671
								c0.249,0.632,0.449,1.406,0.83,2.13c0.349,0.745,0.727,1.552,1.127,2.406c0.199,0.426,0.403,0.864,0.612,1.312
								c0.245,0.436,0.496,0.881,0.75,1.333c0.512,0.903,1.042,1.835,1.579,2.784c0.581,0.922,1.21,1.837,1.816,2.763l0.919,1.38
								c0.333,0.44,0.665,0.878,0.994,1.313c0.666,0.864,1.287,1.738,1.946,2.538c0.672,0.789,1.322,1.552,1.939,2.275
								c0.598,0.739,1.244,1.363,1.809,1.966c0.574,0.594,1.088,1.152,1.564,1.623c0.49,0.453,0.916,0.848,1.268,1.173
								c0.702,0.65,1.103,1.022,1.103,1.022l0.074,0.069c0.608,0.563,0.644,1.512,0.08,2.12c-0.563,0.608-1.513,0.644-2.12,0.08
								c-0.012-0.011-0.029-0.027-0.041-0.038c0,0-0.409-0.409-1.125-1.125c-0.357-0.357-0.792-0.792-1.29-1.289
								c-0.48-0.512-0.993-1.112-1.567-1.754c-0.565-0.65-1.21-1.326-1.8-2.114c-0.609-0.773-1.251-1.588-1.915-2.431
								c-0.649-0.854-1.258-1.781-1.909-2.698c-0.322-0.461-0.646-0.926-0.971-1.393l-0.895-1.461c-0.59-0.98-1.2-1.945-1.761-2.918
								c-0.518-1-1.027-1.983-1.52-2.935c-0.244-0.477-0.484-0.945-0.719-1.404c-0.203-0.48-0.401-0.95-0.594-1.408
								c-0.384-0.914-0.747-1.778-1.082-2.576c-0.37-0.792-0.528-1.538-0.757-2.189c-0.206-0.654-0.386-1.224-0.535-1.693
								c-0.296-0.939-0.466-1.476-0.466-1.476c-0.135-0.426,0.102-0.881,0.529-1.016
								C219.706,124.311,220.15,124.537,220.297,124.944z"/>
						</g>
						<path style="fill:none;stroke:#0D0F14;stroke-width:3;stroke-linecap:round;stroke-linejoin:round;stroke-miterlimit:10;" d="
							M216.289,108.411c1-4.21,8.5-8.21,15.62-5.21c0.12,0.13,0.24,0.26,0.35,0.41c0.99,1.24,1.57,3.191,1.721,5.46
							c0.279,4.17-0.891,9.47-3.71,13.731v0.01"/>
						<path style="fill:none;stroke:#0D0F14;stroke-width:3;stroke-linecap:round;stroke-linejoin:round;stroke-miterlimit:10;" d="
							M233.979,109.071c4.93,1.68,8.01,7.01,7.18,13.26c-0.02,0.16-0.04,0.32-0.08,0.48c-0.98,6.04-5.29,11.02-5.29,11.02"/>
						<path style="fill:none;stroke:#0D0F14;stroke-width:3;stroke-linecap:round;stroke-linejoin:round;stroke-miterlimit:10;" d="
							M241.079,122.812c3.36,3.18,4.46,8.06,3.51,12.49c-0.72,3.369-2.64,6.479-5.649,8.38"/>
						<path style="fill:none;stroke:#0D0F14;stroke-width:3;stroke-linecap:round;stroke-linejoin:round;stroke-miterlimit:10;" d="
							M244.588,135.302c2.511,2.729,3.2,7.359,1.9,11.22c-0.93,2.78-2.88,5.16-5.93,6.13"/>
						<path style="fill:none;stroke:#0D0F14;stroke-width:3;stroke-linecap:round;stroke-linejoin:round;stroke-miterlimit:10;" d="
							M246.489,146.521c4.25,4.48,2.74,12.58-0.75,14.74"/>
						<path style="fill:none;stroke:#0D0F14;stroke-width:3;stroke-linecap:round;stroke-linejoin:round;stroke-miterlimit:10;" d="
							M232.258,103.611c13.32-12.86,41.48-20.2,50.57-18.36c9.08,1.83,12.08,11.41,7.41,22.16
							c-4.66,10.75-11.58,33.95-15.209,48.311c-3.621,14.359-5.68,21.859-17.711,19.859"/>
					</g>
				</g>
				<g id="XMLID_10_">
					<g>
						<path style="fill:#C7323C;" d="M172.419,95.741c2.62,7.89,5.19,20.41,5.34,33.49c-5.13-3.34-11.12-5.07-16.72-5.521v-0.01
							C164.409,106.571,169.159,97.331,172.419,95.741z"/>
						<path style="fill:#941D25;" d="M166.565,124.579c3.867,0.889,7.727,2.395,11.194,4.652
							c-0.104-9.094-1.379-17.912-3.026-25.097C172.153,107.205,169.11,113.994,166.565,124.579z"/>
						<path style="fill:#272A38;" d="M168.409,87.581c1.09,0.86,2.56,3.8,4.01,8.16c-3.26,1.59-8.01,10.83-11.38,27.96v0.01
							c-2.49-0.21-4.9-0.159-7.13,0.12C158.029,104.581,166.659,88.911,168.409,87.581z"/>
						<path style="fill:#FFFFFF;" d="M177.759,129.231c-0.15-13.08-2.72-25.601-5.34-33.49c-1.45-4.36-2.92-7.3-4.01-8.16
							c1.85-1.41,5.25-2.25,6.12-1.25c2.63,3,26.13,45.37,18.63,89.13c-4.21,24.53-22.87,44-50,47.5
							c-18.5-11.76-21.56-39.88-21.13-41.63c0.44-1.75,4.5-2.689,6.38-4.189s1.38-1.061,3-14.811s11.25-33,22.5-38.5
							c2.23-0.279,4.64-0.33,7.13-0.12C166.639,124.161,172.629,125.892,177.759,129.231z"/>
						<path style="fill:#C7323C;" d="M128.735,176.879c-0.1,0.082-0.208,0.169-0.326,0.263c-1.88,1.5-5.94,2.439-6.38,4.189
							c-0.132,0.538,0.068,3.569,0.941,7.846l0.033,0.061c-0.125-1.75,1.281-3.375,3.031-4.156c1.75-0.781,4.094-1.031,5.188-1.594
							c1.094-0.563,2.125-2.906,1.875-4.25C132.847,177.894,130.529,176.333,128.735,176.879z"/>
						<path style="fill:#454A5E;" d="M146.744,151.79c-1.478-1.13-7.315,1.016-9.94,4.352c-2.627,3.337-0.422,8.289,4.427,5.864
							C145.491,159.876,147.947,152.951,146.744,151.79z"/>
						<path style="fill:#C7323C;" d="M125.291,197.78c1.701,5.057,4.192,10.578,7.782,15.51c3.333-3.805,5.027-9.685,3.156-13.268
							C132.893,198.324,129.517,197.538,125.291,197.78z"/>
						<path style="fill:#454A5E;" d="M194.102,168.429c4.087-41.165-17.084-79.259-19.573-82.098c-0.87-1-4.27-0.16-6.12,1.25
							c1.09,0.86,2.56,3.8,4.01,8.16c2.62,7.89,5.19,20.41,5.34,33.49c-5.13-3.34-11.12-5.07-16.72-5.521
							c-2.49-0.21-4.9-0.159-7.13,0.12c-0.138,0.067-0.274,0.146-0.411,0.218C153.594,133.467,157.191,160.309,194.102,168.429z"/>
						<g>
							<path style="fill:#0D0F14;" d="M125.239,196.717c0,0,0.691-0.022,1.925-0.03c0.639,0.052,1.451,0.033,2.322,0.174
								c0.884,0.095,1.876,0.28,2.936,0.559c1.057,0.285,2.192,0.651,3.334,1.135c1.15,0.469,2.323,1.033,3.489,1.63
								c1.173,0.585,2.355,1.205,3.557,1.706c0.603,0.241,1.208,0.484,1.823,0.657c0.305,0.104,0.614,0.182,0.924,0.244l0.464,0.105
								l0.116,0.026l0.015,0.003c-0.188-0.029-0.043-0.007-0.081-0.013l0.033,0.003l0.065,0.008l0.26,0.03
								c0.324,0.024,0.742,0.115,0.989,0.084l0.782-0.042l0.83-0.164l0.771-0.287c0.985-0.454,1.715-1.216,2.121-2.125l0.157-0.34
								l0.041-0.084l0.01-0.021l0.005-0.01c0.032-0.12-0.038,0.151-0.03,0.118l0.013-0.06l0.052-0.235
								c0.057-0.292,0.181-0.689,0.128-0.815c0.016-0.322-0.037-0.819-0.186-1.219c-0.282-0.826-0.857-1.484-1.512-1.877
								c-0.665-0.371-1.452-0.5-1.905-0.457c-0.587,0.039-1.104,0.286-1.393,0.61c-0.073,0.08-0.157,0.143-0.214,0.221
								c-0.042,0.089-0.091,0.165-0.122,0.244c-0.078,0.147-0.105,0.291-0.085,0.422c0.01,0.246,0.072,0.372,0.072,0.372
								c0.495,1.005,0.081,2.221-0.924,2.716c-1.005,0.495-2.222,0.081-2.717-0.924c-0.4-0.814-0.206-1.766,0.417-2.362l0.369-0.352
								c0,0,0.202-0.193,0.475-0.546c0.071-0.086,0.14-0.187,0.218-0.294c0.099-0.095,0.188-0.208,0.295-0.322
								c0.197-0.241,0.417-0.511,0.719-0.767c0.565-0.535,1.384-1.086,2.473-1.336c1.22-0.293,2.409-0.069,3.587,0.561
								c1.156,0.656,2.184,1.781,2.702,3.218c0.258,0.72,0.406,1.465,0.349,2.397c-0.001,0.509-0.097,0.725-0.153,1.063
								l-0.049,0.236l-0.012,0.06c0.007-0.023-0.069,0.256-0.04,0.146l-0.007,0.017l-0.014,0.035l-0.057,0.138l-0.235,0.554
								c-0.647,1.476-1.931,2.753-3.454,3.427c-0.386,0.145-0.774,0.303-1.169,0.424l-1.211,0.231
								c-0.423,0.039-0.868,0.039-1.302,0.046c-0.449,0.009-0.721-0.07-1.09-0.101c-1.631-0.257-2.977-0.767-4.318-1.354
								c-1.319-0.59-2.515-1.261-3.666-1.872c-1.149-0.618-2.235-1.192-3.287-1.671c-1.047-0.493-2.062-0.862-3.013-1.159
								c-0.953-0.285-1.841-0.5-2.641-0.632c-0.801-0.176-1.481-0.187-2.055-0.272c-1.206-0.058-1.91-0.074-1.91-0.074
								c-0.498-0.011-0.893-0.424-0.882-0.922c0.011-0.481,0.396-0.865,0.871-0.881L125.239,196.717z"/>
						</g>
						<g id="XMLID_11_">
							<g>
								<path style="fill:#A2A8B8;" d="M143.639,168.711c3.71-2.88,7.56-4.1,10.63-6.22c-2.97,13.58-12.25,12.13-18.04,14.46
									C136.349,176.711,138.419,172.762,143.639,168.711z"/>
							</g>
							<path style="fill:#C7323C;" d="M145.244,166.862c2.603-1.438,3.512-4.574,4.165-7.25c0.602-2.466,0-7.688,3.156-9.969
								c2.799-2.023,8.188,0.655,7.375,6.078C159.128,161.144,151.86,166.144,145.244,166.862z"/>
							<g>
								
									<path style="fill:none;stroke:#0D0F14;stroke-width:3;stroke-linecap:round;stroke-linejoin:round;stroke-miterlimit:10;" d="
									M136.219,176.961l0.01-0.01c5.79-2.33,15.07-0.88,18.04-14.46"/>
								
									<path style="fill:none;stroke:#0D0F14;stroke-width:3;stroke-linecap:round;stroke-linejoin:round;stroke-miterlimit:10;" d="
									M136.229,176.951c0.12-0.24,2.19-4.189,7.41-8.24c3.71-2.88,7.56-4.1,10.63-6.22"/>
								
									<line style="fill:none;stroke:#0D0F14;stroke-width:3;stroke-linecap:round;stroke-linejoin:round;stroke-miterlimit:10;" x1="154.269" y1="162.491" x2="154.269" y2="162.481"/>
								<g>
									<path style="fill:#0D0F14;" d="M159.989,155.976c0,0-0.035,0.13-0.097,0.358c-0.065,0.23-0.14,0.548-0.264,0.948
										c-0.159,0.404-0.311,0.917-0.549,1.405c-0.223,0.499-0.49,1.02-0.809,1.519c-0.143,0.26-0.322,0.495-0.494,0.732
										c-0.173,0.235-0.337,0.477-0.524,0.681c-0.357,0.431-0.712,0.812-1.036,1.114c-0.312,0.323-0.598,0.546-0.79,0.719
										c-0.195,0.168-0.307,0.265-0.307,0.265c-0.63,0.544-1.583,0.474-2.127-0.156c-0.544-0.631-0.474-1.583,0.156-2.127
										c0.066-0.057,0.136-0.107,0.208-0.15l0.063-0.038c0,0,0.105-0.063,0.289-0.172c0.181-0.112,0.46-0.256,0.751-0.469
										c0.309-0.198,0.647-0.451,0.993-0.743c0.185-0.136,0.344-0.305,0.518-0.468c0.172-0.165,0.355-0.328,0.506-0.518
										c0.333-0.357,0.632-0.748,0.894-1.133c0.279-0.377,0.458-0.751,0.661-1.065c0.18-0.346,0.318-0.665,0.421-0.874
										c0.101-0.213,0.158-0.335,0.158-0.335c0.174-0.369,0.614-0.527,0.982-0.353C159.92,155.27,160.081,155.637,159.989,155.976
										z"/>
								</g>
							</g>
						</g>
						<path style="fill:#63A6FF;" d="M150.208,180.773c0,0,0.067-0.134,0.21-0.355c0.131-0.235,0.365-0.532,0.669-0.921
							c0.308-0.371,0.702-0.841,1.181-1.281c0.474-0.454,1.036-0.926,1.666-1.419c0.63-0.497,1.355-0.936,2.139-1.382
							c0.785-0.438,1.62-0.9,2.533-1.249c0.916-0.342,1.862-0.696,2.824-1.056c0.962-0.358,1.96-0.661,2.973-0.916
							c1.006-0.276,2.016-0.534,3.012-0.773c0.492-0.138,0.997-0.219,1.497-0.291c0.498-0.076,0.99-0.151,1.473-0.225
							c0.969-0.138,1.904-0.26,2.792-0.359c0.882-0.121,1.734-0.141,2.522-0.128c1.57-0.011,2.872,0.037,3.78,0.084
							c0.91,0.062,1.427,0.118,1.427,0.118c0.281,0.03,0.484,0.283,0.454,0.564c-0.02,0.186-0.139,0.339-0.298,0.411l-0.04,0.018
							c0-0.001-0.48,0.217-1.316,0.559c-0.837,0.328-2.029,0.778-3.452,1.248c-0.709,0.248-1.483,0.466-2.277,0.807
							c-0.8,0.313-1.643,0.623-2.516,0.933c-0.869,0.324-1.784,0.575-2.681,0.951c-0.9,0.363-1.816,0.718-2.735,1.054
							c-0.916,0.347-1.847,0.647-2.726,1.049c-0.894,0.355-1.774,0.706-2.626,1.045c-0.867,0.302-1.668,0.675-2.48,0.919
							c-0.792,0.283-1.598,0.445-2.306,0.663c-0.724,0.189-1.403,0.341-2.029,0.439c-0.626,0.105-1.151,0.192-1.622,0.238
							c-0.48,0.04-0.858,0.07-1.115,0.092c-0.264,0.022-0.413,0.018-0.413,0.018c-0.326-0.006-0.586-0.274-0.581-0.601
							C150.147,180.939,150.172,180.848,150.208,180.773z"/>
						<path style="fill:#C7323C;" d="M156.695,185.268c0,0,0.295-0.349,0.886-0.797c0.296-0.209,0.663-0.481,1.09-0.729
							c0.425-0.25,0.915-0.489,1.457-0.728c1.085-0.464,2.39-0.814,3.814-1.025c1.432-0.139,2.952-0.341,4.492-0.346
							c0.768-0.019,1.537-0.021,2.292-0.01c0.754-0.01,1.502,0.065,2.222,0.127c1.442,0.148,2.776,0.263,3.917,0.543
							c2.282,0.499,3.749,1.044,3.749,1.044c0.27,0.1,0.408,0.399,0.308,0.67c-0.059,0.159-0.188,0.272-0.339,0.318l-0.034,0.01
							c0-0.001-1.521,0.445-3.723,0.796c-0.55,0.082-1.146,0.184-1.774,0.311c-0.628,0.116-1.288,0.224-1.969,0.325
							c-0.681,0.098-1.382,0.185-2.095,0.31c-0.712,0.117-1.436,0.223-2.159,0.313c-0.723,0.094-1.446,0.181-2.155,0.297
							c-0.711,0.09-1.412,0.178-2.089,0.263c-0.679,0.076-1.334,0.151-1.967,0.156c-0.629,0.025-1.238-0.02-1.796-0.042
							c-1.126-0.07-2.096-0.296-2.781-0.463c-0.692-0.196-1.125-0.367-1.125-0.367c-0.311-0.124-0.463-0.477-0.339-0.787
							c0.024-0.062,0.058-0.117,0.098-0.165L156.695,185.268z"/>
						<path style="fill:#63A6FF;" d="M158.666,190.559c0,0,0.295-0.163,0.84-0.293c0.265-0.056,0.611-0.138,0.974-0.172
							c0.367-0.04,0.776-0.052,1.222-0.047c0.446,0.006,0.911,0.07,1.4,0.161c0.488,0.093,1.003,0.2,1.508,0.387
							c1.004,0.388,2.095,0.757,3.108,1.307c0.514,0.257,1.022,0.523,1.517,0.795c0.501,0.258,0.951,0.602,1.401,0.895
							c0.885,0.619,1.706,1.188,2.328,1.803c1.277,1.177,1.999,2.082,2,2.082c0.179,0.225,0.143,0.553-0.083,0.732
							c-0.129,0.103-0.292,0.135-0.441,0.101l-0.045-0.01c0.001,0-1.141-0.267-2.659-0.847c-0.388-0.132-0.778-0.322-1.232-0.447
							c-0.446-0.139-0.906-0.298-1.376-0.473c-0.473-0.166-0.938-0.379-1.438-0.537c-0.498-0.163-0.998-0.338-1.492-0.522
							c-0.497-0.178-0.98-0.387-1.48-0.531c-0.488-0.172-0.969-0.342-1.434-0.506c-0.458-0.188-0.912-0.326-1.322-0.528
							c-0.417-0.177-0.796-0.418-1.153-0.601c-0.712-0.393-1.281-0.854-1.677-1.172c-0.394-0.345-0.643-0.592-0.643-0.592
							c-0.238-0.236-0.239-0.62-0.003-0.857c0.041-0.042,0.086-0.076,0.135-0.103L158.666,190.559z"/>
					</g>
					<g>
						<path style="fill:none;stroke:#0D0F14;stroke-width:3;stroke-linecap:round;stroke-linejoin:round;stroke-miterlimit:10;" d="
							M153.909,123.831c-11.25,5.5-20.88,24.75-22.5,38.5s-1.12,13.311-3,14.811s-5.94,2.439-6.38,4.189
							c-0.43,1.75,2.63,29.87,21.13,41.63c27.13-3.5,45.79-22.97,50-47.5c7.5-43.76-16-86.13-18.63-89.13
							c-0.87-1-4.27-0.16-6.12,1.25C166.659,88.911,158.029,104.581,153.909,123.831z"/>
						<path style="fill:none;stroke:#0D0F14;stroke-width:3;stroke-linecap:round;stroke-linejoin:round;stroke-miterlimit:10;" d="
							M153.909,123.831c2.23-0.279,4.64-0.33,7.13-0.12c5.6,0.45,11.59,2.181,16.72,5.521c2.73,1.77,5.22,4,7.27,6.73"/>
						<path style="fill:none;stroke:#0D0F14;stroke-width:3;stroke-linecap:round;stroke-linejoin:round;stroke-miterlimit:10;" d="
							M168.409,87.581c1.09,0.86,2.56,3.8,4.01,8.16c2.62,7.89,5.19,20.41,5.34,33.49"/>
						<path style="fill:none;stroke:#0D0F14;stroke-width:3;stroke-linecap:round;stroke-linejoin:round;stroke-miterlimit:10;" d="
							M172.419,95.741c-3.26,1.59-8.01,10.83-11.38,27.96"/>
					</g>
				</g>
				<g>
					
						<rect x="183.711" y="179.711" transform="matrix(0.7788 -0.6273 0.6273 0.7788 -73.4409 160.8073)" style="fill:#FFFFFF;stroke:#0D0F14;stroke-width:3;stroke-linecap:round;stroke-linejoin:round;stroke-miterlimit:10;" width="15.167" height="9.656"/>
					
						<rect x="185.365" y="190.929" transform="matrix(0.7788 -0.6273 0.6273 0.7788 -80.1148 164.3481)" style="fill:#FFFFFF;stroke:#0D0F14;stroke-width:3;stroke-linecap:round;stroke-linejoin:round;stroke-miterlimit:10;" width="15.166" height="9.656"/>
					
						<rect x="187.018" y="202.148" transform="matrix(0.7788 -0.6273 0.6273 0.7788 -86.7837 167.8442)" style="fill:#FFFFFF;stroke:#0D0F14;stroke-width:3;stroke-linecap:round;stroke-linejoin:round;stroke-miterlimit:10;" width="15.167" height="9.656"/>
					
						<rect x="188.672" y="213.367" transform="matrix(0.7788 -0.6273 0.6273 0.7788 -93.4574 171.3763)" style="fill:#FFFFFF;stroke:#0D0F14;stroke-width:3;stroke-linecap:round;stroke-linejoin:round;stroke-miterlimit:10;" width="15.165" height="9.656"/>
				</g>
				<g>
					<path style="fill:#FFFFFF;" d="M228.909,242.581l-10.092-19.62c-10.842,2.13-25.869,8.745-25.869,8.745
						c-11.961,10.5-42.914,44.375-42.914,44.375s-1.625,14.668-1.625,17.334c-3.333,7.833-6.667,15.333-6.667,15.333
						s2.223,13.431,8.111,22.632l-41.611,46.534c0,0,2,8.333,12.833,16.833c0,0,35.833-32.5,46.666-48.333
						c1.5,14.5,5.5,56.333,6,57.833s1.5,4.666,5.5,4.5c4-0.166,44.332-4.332,57.166-10.499c-4.333-29.5-13.333-64.5-13.333-64.5
						s4.334-7.5,4.5-9.5S228.909,242.581,228.909,242.581z"/>
					<path style="fill:#DFE0E6;" d="M223.076,333.748c0,0,4.334-7.5,4.5-9.5c0.045-0.541,0.163-6.776,0.311-15.575l-39.353-21.752
						c0,0-5.699-5.007-6.495-4.507c-0.796,0.5,2.222,20.834,2.222,20.834L169,332.306l-27.218,8.102l-12.892,14.416
						c4.221,1.104,10.771,2.093,16.091-0.329c3.883,3.361,9.034,4.033,13.236,3.592c3.895-4.318,7.26-8.361,9.525-11.672
						c0.337,3.26,0.801,7.901,1.323,13.155c7.245,2.458,18.7,0.052,21.332-1.36c4.679,5.539,19.283,9.539,21.147,9.539
						c3.206,8.749,8.087,27.607,9.952,34.963c6.115-1.321,11.493-2.82,14.912-4.463
						C232.076,368.748,223.076,333.748,223.076,333.748z"/>
					<path style="fill:none;stroke:#0D0F14;stroke-width:3;stroke-linecap:round;stroke-linejoin:round;stroke-miterlimit:10;" d="
						M228.909,242.581l-10.092-19.62c-10.842,2.13-25.869,8.745-25.869,8.745c-11.961,10.5-42.914,44.375-42.914,44.375
						s-1.625,14.668-1.625,17.334c-3.333,7.833-6.667,15.333-6.667,15.333s2.223,13.431,8.111,22.632l-41.611,46.534
						c0,0,2,8.333,12.833,16.833c0,0,35.833-32.5,46.666-48.333c1.5,14.5,5.5,56.333,6,57.833s1.5,4.666,5.5,4.5
						c4-0.166,44.332-4.332,57.166-10.499c-4.333-29.5-13.333-64.5-13.333-64.5s4.334-7.5,4.5-9.5S228.909,242.581,228.909,242.581z
						"/>
				</g>
				<g id="XMLID_13_">
					<g>
						<path style="fill:#FFFFFF;" d="M227.468,332.306c5.71,2.431,9.771,9.82,7.521,16.15c-1.811,5.11-9.25,6.58-13.691,2.97
							c0.16-0.14,0.311-0.279,0.441-0.43C224.428,348.016,229.708,337.636,227.468,332.306z"/>
						<path style="fill:#FFFFFF;" d="M214.079,332.306c-1.09,2.011-3.17,11.48-7.67,17.24c-4.499,5.76-13.919,2.91-16.969-1.88
							c0.239-0.26,0.45-0.54,0.64-0.84c4-6.29,9.83-16.45,9.83-16.45C202.659,327.536,209.739,326.456,214.079,332.306z"/>
						<path style="fill:#FFFFFF;" d="M182.039,325.786c-5.37,4.3-8.27,13.52-13.08,19.76c-0.32,0.44-0.67,0.87-1.03,1.28
							c-6.98,7.96-20.6,1.63-20.6-3.29c3.2-6.97,6.57-17.771,12.21-22.62c0.23-0.2,0.46-0.38,0.69-0.56
							C167.329,315.036,179.129,317.876,182.039,325.786z"/>
						<path style="fill:#7153B5;" d="M227.468,332.306c2.24,5.33-3.04,15.71-5.729,18.69c-0.13,0.15-0.28,0.29-0.441,0.43
							c-3.52,3.04-12.42,2.66-14.89-1.88c4.5-5.76,6.58-15.229,7.67-17.24c1.08-2.02,9.47-5.89,12.88-0.93
							c0.2,0.29,0.37,0.6,0.5,0.93H227.468z"/>
						<path style="fill:#7153B5;" d="M199.909,330.376c0,0-5.83,10.16-9.83,16.45c-0.189,0.3-0.4,0.58-0.64,0.84
							c-4.671,5.34-17.671,3.99-20.47-2.11l-0.01-0.01c4.81-6.24,7.71-15.46,13.08-19.76c1.63-1.3,3.49-2.15,5.7-2.33
							C197.679,322.666,199.909,330.376,199.909,330.376z"/>
						<path style="fill:#7153B5;" d="M143.079,313.376c8.25-4.5,16.75,2.66,16.46,7.54c-5.64,4.85-9.01,15.65-12.21,22.62
							c-2.59,4.42-14.09,6.17-16.42-1.5C128.579,334.376,134.829,317.876,143.079,313.376z"/>
					</g>
					<g>
						<path style="fill:none;stroke:#0D0F14;stroke-width:3;stroke-linecap:round;stroke-linejoin:round;stroke-miterlimit:10;" d="
							M159.539,320.916c0.29-4.88-8.21-12.04-16.46-7.54s-14.5,21-12.17,28.66c2.33,7.67,13.83,5.92,16.42,1.5
							C150.529,336.566,153.899,325.766,159.539,320.916c0.23-0.2,0.46-0.38,0.69-0.56c7.1-5.32,18.9-2.48,21.81,5.43"/>
						<path style="fill:none;stroke:#0D0F14;stroke-width:3;stroke-linecap:round;stroke-linejoin:round;stroke-miterlimit:10;" d="
							M147.329,343.536c0,4.92,13.62,11.25,20.6,3.29c0.36-0.41,0.71-0.84,1.03-1.28c4.81-6.24,7.71-15.46,13.08-19.76
							c1.63-1.3,3.49-2.15,5.7-2.33c9.939-0.79,12.17,6.92,12.17,6.92"/>
						<path style="fill:none;stroke:#0D0F14;stroke-width:3;stroke-linecap:round;stroke-linejoin:round;stroke-miterlimit:10;" d="
							M168.969,345.556c2.8,6.101,15.8,7.45,20.47,2.11c0.239-0.26,0.45-0.54,0.64-0.84c4-6.29,9.83-16.45,9.83-16.45
							c2.75-2.84,9.83-3.92,14.169,1.93"/>
						<path style="fill:none;stroke:#0D0F14;stroke-width:3;stroke-linecap:round;stroke-linejoin:round;stroke-miterlimit:10;" d="
							M227.468,332.306c2.24,5.33-3.04,15.71-5.729,18.69c-0.13,0.15-0.28,0.29-0.441,0.43c-3.52,3.04-12.42,2.66-14.89-1.88"/>
						<path style="fill:none;stroke:#0D0F14;stroke-width:3;stroke-linecap:round;stroke-linejoin:round;stroke-miterlimit:10;" d="
							M189.439,347.666c3.05,4.79,12.47,7.64,16.969,1.88c4.5-5.76,6.58-15.229,7.67-17.24c1.08-2.02,9.47-5.89,12.88-0.93
							c0.2,0.29,0.37,0.6,0.5,0.93"/>
						<path style="fill:none;stroke:#0D0F14;stroke-width:3;stroke-linecap:round;stroke-linejoin:round;stroke-miterlimit:10;" d="
							M221.298,351.426c4.441,3.61,11.88,2.141,13.691-2.97c2.25-6.33-1.811-13.72-7.521-16.15h-0.01"/>
					</g>
				</g>
				
					<path style="fill:#5C5E6E;stroke:#0D0F14;stroke-width:3;stroke-linecap:round;stroke-linejoin:round;stroke-miterlimit:10;" d="
					M224.159,240.415l4.75,2.166c0.833,2.667,2.269,13.75,2.269,13.75l-37.768,15.167l-1.497-6.426
					C191.912,265.072,211.742,244.665,224.159,240.415z"/>
				<path style="fill:none;stroke:#0D0F14;stroke-width:2.5;stroke-linecap:round;stroke-linejoin:round;stroke-miterlimit:10;" d="
					M148.409,293.415c0,0,53.226-52.667,56.779-56c6.346-3.959,17.071-7.762,17.071-7.762"/>
				
					<path style="fill:#FFFFFF;stroke:#0D0F14;stroke-width:2.5;stroke-linecap:round;stroke-linejoin:round;stroke-miterlimit:10;" d="
					M177.493,232.914c0,2.117-1.157,3.834-2.583,3.834c-1.427,0-2.583-1.717-2.583-3.834c0-2.116,1.157-3.833,2.583-3.833
					C176.336,229.081,177.493,230.798,177.493,232.914z"/>
				<g>
					
						<path style="fill:#FFFFFF;stroke:#0D0F14;stroke-width:3;stroke-linecap:round;stroke-linejoin:round;stroke-miterlimit:10;" d="
						M216.742,350.216c0,0-1.333,7.458-0.833,8.708s5.416,3.25,5.416,3.25s1.751,4.418,2.084,5.084
						c0.333,0.666,5.5,1.582,7.083,1.166c1.583-0.416,7.751-5,9.667-6.583c1.916-1.583,3.907-4.997,4.083-7.458
						c0.176-2.461-1.5-10.145-1.5-10.145h-24.95L216.742,350.216z"/>
					
						<path style="fill:#5C5E6E;stroke:#0D0F14;stroke-width:3;stroke-linecap:round;stroke-linejoin:round;stroke-miterlimit:10;" d="
						M201.248,345.645c0,0,1.293,7.19,1.636,8.495c0.343,1.305,37.437-0.432,61.862-14.752l-3.088-9.059l-60.732,1.41
						L201.248,345.645z"/>
					<path style="fill:#FFFFFF;" d="M186.576,263.831l9.958,29.584c0.375,14.416,0,49.666,0,51.791s2.875,3,5.25,3
						s30.749-1.125,63.749-14.875c2.322-0.968,1.875-4.25,1.5-5.625s-28.125-65.354-28.125-65.354l-7.113-11.146
						c0,0-14.512,3.25-15.637,3.625s-21.141,12.125-21.141,12.125s17.766-16.875,19.516-18s14.375-6.375,14.375-6.375l-2.375-4.616
						l-18.125,3.866L186.576,263.831z"/>
					<g>
						<g>
							<path style="fill:none;stroke:#0D0F14;stroke-width:3;stroke-linecap:round;stroke-linejoin:round;" d="M196.56,341.694
								c0.922,0.039,2.099,0.041,3.496,0"/>
							
								<path style="fill:none;stroke:#0D0F14;stroke-width:3;stroke-linecap:round;stroke-linejoin:round;stroke-dasharray:7.2228,7.2228;" d="
								M207.259,341.241c13.16-1.186,34.111-4.733,52.483-12.605"/>
							<path style="fill:none;stroke:#0D0F14;stroke-width:3;stroke-linecap:round;stroke-linejoin:round;" d="M263.046,327.158
								c1.06-0.494,2.109-1.004,3.146-1.529"/>
						</g>
					</g>
					<path style="fill:none;stroke:#0D0F14;stroke-width:3;stroke-linecap:round;stroke-linejoin:round;stroke-miterlimit:10;" d="
						M196.617,297.705c0.229,16.119-0.083,45.564-0.083,47.501c0,2.125,2.875,3,5.25,3s30.749-1.125,63.749-14.875
						c2.322-0.968,1.875-4.25,1.5-5.625s-28.125-65.354-28.125-65.354l-7.113-11.146c0,0-14.512,3.25-15.637,3.625
						s-21.141,12.125-21.141,12.125s17.766-16.875,19.516-18s14.375-6.375,14.375-6.375l-2.995-5.823"/>
					<g>
						<path style="fill:#0D0F14;" d="M189.447,269.522l8.508,23.412c0.05,0.137,0.076,0.277,0.079,0.417v0.025l0.083,4.308
							c0.016,0.828-0.643,1.513-1.471,1.528c-0.829,0.017-1.513-0.642-1.529-1.471l0,0l-0.001-0.015l-0.082-4.272l0.079,0.442
							l-7.492-23.756c-0.16-0.508,0.122-1.049,0.629-1.209C188.745,268.775,189.271,269.04,189.447,269.522z"/>
					</g>
					<g>
						<path style="fill:#0D0F14;" d="M184.869,282.704c0,0,3.171,2.364,6.341,4.728c1.581,1.188,3.163,2.375,4.349,3.266
							c1.187,0.889,1.921,1.553,1.921,1.552c0.616,0.557,0.664,1.507,0.107,2.122c-0.519,0.574-1.385,0.65-1.998,0.208
							c0-0.001-0.8-0.582-1.914-1.562c-1.115-0.978-2.602-2.281-4.089-3.584c-2.966-2.617-5.932-5.234-5.932-5.234
							c-0.399-0.353-0.438-0.962-0.085-1.361C183.903,282.46,184.471,282.408,184.869,282.704z"/>
					</g>
				</g>
			</g>
			<g>
				
					<path style="fill:#DE7426;stroke:#0D0F14;stroke-width:3;stroke-linecap:round;stroke-linejoin:round;stroke-miterlimit:10;" d="
					M281.406,437.239c-5.17,5.364-12.408,20.121-11.563,22.189c0.846,2.068,7.01,1.845,14.1-3.854
					c8.271-3.762,12.598-5.076,12.598-5.076l14.357-0.564c0,0,3.125,4.324,6.791,5.922c-1.033,1.785-3.197,6.391-1.598,6.955
					c1.598,0.565,16.967-2.351,25.826-7.896v-17.678H281.406z"/>
				
					<path style="fill:#FFC194;stroke:#0D0F14;stroke-width:3;stroke-linecap:round;stroke-linejoin:round;stroke-miterlimit:10;" d="
					M271.865,423.944c-5.096,5.388-3.598,17.977-2.75,18.26c0.846,0.281,3.242-1.551,3.242-1.551
					c0.635,2.749,7.473,8.741,8.178,8.177c0.705-0.564,1.621-4.019,1.621-4.019c2.891,2.962,8.107,6.088,15.369,5.688v-26.555
					H271.865z"/>
				<g id="XMLID_19_">
					<g id="XMLID_20_">
						<g>
							<path style="fill:#FF9345;" d="M366.045,368.748c4.873-5.506,13.422-6.78,18.543-9.306
								c7.762-3.836,11.146-7.23,12.488-10.751c0.846-2.21,4.297-3,6.553,0.384c1.793,2.695,13.254,16.366,6.982,35.079
								c4.016-1.657,6.271-0.957,6.902-0.395c0.631,0.564-2.188,5.923-1.973,10.783c0.215,4.874-4.951,15.792-11.607,19.245
								c3.926,2.469,5.053,5.222,5.053,5.222s-7.197,1.061-11.076,4.095c-3.869,3.023-18.611,10.918-32.633,3.452
								c0.35,1.692,0.914,4.928,0.631,5.357c-0.281,0.417-6.902-0.351-10.568-3.938c0.035,5.731-1.398,11.033-1.838,13.029
								c-0.711,3.236,1.273,5.639,2.017,7.186c0.758,1.556-0.111,4.443-0.045,7.331c0.068,2.899,0.283,7.478-1.555,8.381
								c-1.828,0.914-4.084-0.339-5.641-2.379c-1.545-2.054-3.52-4.163-9.441-5.641c-5.922-1.489-11.348-5.144-13.603-6.317
								c-5.504,1.016-19.322,1.094-19.322,1.094s-2.605,10.085-3.023,11.777c-0.428,1.691-4.15,2.391-6.068-0.498
								c-5.291-7.962-10.434-29.394-10.58-37.64c0,0,2.471-7.828,6.498-11.561c4.016-3.735,20.912-10.063,32.305-10.818
								c7.309-0.475,12.43,0.507,16.875,3.079v-0.011c-3.014-4.873-3.723-16.683,1.646-24.33
								c5.988-8.528,15.432-12.757,18.047-16.773C363.248,362.159,365.367,364.606,366.045,368.748z"/>
						</g>
						<path style="fill:#AB452F;" d="M417.514,383.76c-0.631-0.563-2.887-1.263-6.902,0.395c6.271-18.713-5.189-32.384-6.982-35.079
							c-2.256-3.384-5.707-2.594-6.553-0.384c-1.342,3.521-4.727,6.915-12.488,10.751c-5.121,2.525-13.67,3.8-18.543,9.306
							c-0.678-4.142-2.797-6.589-4.434-4.862c-0.572,0.879-1.486,1.771-2.604,2.714c2.389,1.122,4.246,3.482,3.518,6.93
							c-1.127,5.344-1.315,16.059,0.564,16.813c2.787-2.728,8.365-7.709,10.246-7.803c1.881-0.095,2.82,0.847,2.539,3.76
							c-0.283,2.914,0.094,8.93,0.469,10.811c0.377,1.88,2.445,0.845,3.572,0c1.129-0.847,7.051-3.196,14.102-3.478
							c7.049-0.282,9.684-2.352,9.918-1.881c0.233,0.47-1.178,6.203-3.058,8.178c-1.508,1.583,6.533,3.582,13.51,0.246
							c0.793-2.176,1.217-4.175,1.154-5.632C415.326,389.683,418.145,384.324,417.514,383.76z"/>
						<g>
							<g>
								<path style="fill:#0D0F14;" d="M367.536,368.589c0,0,0.023,0.508,0.058,1.268c0.007,0.193,0.023,0.39,0.023,0.621
									c-0.013,0.243-0.025,0.5-0.038,0.766c-0.04,0.524-0.033,1.102-0.124,1.637c-0.091,0.532-0.182,1.065-0.268,1.565
									c-0.06,0.501-0.248,0.944-0.344,1.334c-0.226,0.771-0.377,1.284-0.377,1.284c-0.157,0.536-0.72,0.844-1.256,0.686
									c-0.496-0.147-0.797-0.639-0.714-1.136l0.02-0.125c0,0,0.078-0.474,0.194-1.185c0.042-0.357,0.168-0.759,0.164-1.21
									c0.021-0.445,0.046-0.919,0.069-1.394c0.025-0.473-0.046-0.914-0.058-1.338c-0.011-0.21-0.022-0.412-0.032-0.604
									c-0.022-0.203-0.066-0.416-0.094-0.601c-0.125-0.752-0.208-1.252-0.208-1.252c-0.138-0.819,0.414-1.594,1.232-1.731
									c0.818-0.138,1.594,0.414,1.731,1.232C367.526,368.465,367.533,368.533,367.536,368.589z"/>
							</g>
							
								<path style="fill:none;stroke:#0D0F14;stroke-width:3;stroke-linecap:round;stroke-linejoin:round;stroke-miterlimit:10;" d="
								M341.918,404.989c-3.014-4.873-3.723-16.683,1.646-24.33c5.988-8.528,15.432-12.757,18.047-16.773
								c1.637-1.727,3.756,0.721,4.434,4.862"/>
							<g>
								<path style="fill:#0D0F14;" d="M342.721,403.733c0,0,0.456,0.35,1.14,0.875c0.17,0.131,0.355,0.272,0.551,0.423
									c0.198,0.176,0.407,0.361,0.623,0.553c0.214,0.191,0.435,0.391,0.659,0.593c0.218,0.204,0.462,0.398,0.66,0.616
									c0.408,0.428,0.816,0.855,1.198,1.257c0.392,0.391,0.702,0.8,0.99,1.129c0.564,0.669,0.94,1.114,0.94,1.114
									c0.243,0.288,0.207,0.719-0.081,0.962c-0.257,0.217-0.626,0.212-0.876,0.005l-0.027-0.023c0,0-0.436-0.36-1.09-0.901
									c-0.331-0.264-0.694-0.6-1.127-0.897c-0.422-0.309-0.872-0.638-1.322-0.967c-0.223-0.171-0.459-0.292-0.682-0.439
									c-0.224-0.139-0.443-0.275-0.656-0.408c-0.213-0.132-0.418-0.259-0.612-0.379c-0.22-0.113-0.427-0.221-0.618-0.319
									c-0.766-0.396-1.275-0.659-1.275-0.659c-0.74-0.38-1.031-1.288-0.651-2.027c0.381-0.74,1.289-1.031,2.028-0.651
									C342.57,403.628,342.653,403.682,342.721,403.733z"/>
							</g>
							
								<path style="fill:none;stroke:#0D0F14;stroke-width:3;stroke-linecap:round;stroke-linejoin:round;stroke-miterlimit:10;" d="
								M355.34,427.977c0.035,5.731-1.398,11.033-1.838,13.029c-0.711,3.236,1.273,5.639,2.017,7.186
								c0.758,1.556-0.111,4.443-0.045,7.331c0.068,2.899,0.283,7.478-1.555,8.381c-1.828,0.914-4.084-0.339-5.641-2.379
								c-1.545-2.054-3.52-4.163-9.441-5.641c-5.922-1.489-11.348-5.144-13.603-6.317c-5.504,1.016-19.322,1.094-19.322,1.094
								s-2.605,10.085-3.023,11.777c-0.428,1.691-4.15,2.391-6.068-0.498c-5.291-7.962-10.434-29.394-10.58-37.64
								c0,0,2.471-7.828,6.498-11.561c4.016-3.735,20.912-10.063,32.305-10.818c7.309-0.475,12.43,0.507,16.875,3.079"/>
							<g>
								<path style="fill:#0D0F14;" d="M353.707,417.191c0,0,0.084,0.146,0.23,0.403c0.142,0.272,0.37,0.592,0.596,1.099
									c0.116,0.248,0.241,0.517,0.374,0.801c0.142,0.287,0.233,0.585,0.359,0.897c0.257,0.62,0.443,1.303,0.656,1.984
									c0.165,0.689,0.354,1.379,0.46,2.034c0.133,0.654,0.212,1.268,0.281,1.796c0.129,1.055,0.176,1.762,0.176,1.762l0.001,0.017
									c0.056,0.828-0.571,1.545-1.4,1.601c-0.828,0.055-1.545-0.571-1.601-1.4c-0.004-0.065-0.004-0.137,0-0.199
									c0,0,0.042-0.645,0.055-1.612c0-0.483,0.005-1.05-0.037-1.65c-0.015-0.607-0.103-1.24-0.167-1.883
									c-0.109-0.63-0.193-1.272-0.35-1.853c-0.074-0.287-0.123-0.589-0.21-0.836c-0.079-0.257-0.154-0.499-0.224-0.723
									c-0.122-0.445-0.331-0.855-0.428-1.124c-0.111-0.274-0.175-0.432-0.175-0.432c-0.163-0.399,0.029-0.855,0.429-1.018
									C353.101,416.705,353.516,416.855,353.707,417.191z"/>
							</g>
							
								<path style="fill:none;stroke:#0D0F14;stroke-width:3;stroke-linecap:round;stroke-linejoin:round;stroke-miterlimit:10;" d="
								M366.045,368.748c4.873-5.506,13.422-6.78,18.543-9.306c7.762-3.836,11.146-7.23,12.488-10.751
								c0.846-2.21,4.297-3,6.553,0.384c1.793,2.695,13.254,16.366,6.982,35.079c4.016-1.657,6.271-0.957,6.902-0.395
								c0.631,0.564-2.188,5.923-1.973,10.783c0.215,4.874-4.951,15.792-11.607,19.245c3.926,2.469,5.053,5.222,5.053,5.222
								s-7.197,1.061-11.076,4.095c-3.869,3.023-18.611,10.918-32.633,3.452c0.35,1.692,0.914,4.928,0.631,5.357
								c-0.281,0.417-6.902-0.351-10.568-3.938l-0.012-0.011"/>
						</g>
					</g>
				</g>
				<g id="XMLID_18_">
					<g>
						<path style="fill:#FF9345;" d="M318.658,408.733h-0.012c-0.394,0.678-0.834,1.298-1.33,1.816c0,0,2.154,0.564,2.154,1.128
							c0,0.564-7.141,9.87-16.355,11.652c0,0-8.076,6.678-29.418,6.588c-21.342-0.103-26.7-14.292-26.7-15.793
							c0-1.511,8.934-7.05,9.78-7.579c0.846-0.53,1.883-15.262,2.346-17.337c0.475-2.065,2.82-8.46,10.887-14.169
							c4.814-16.287,20.945-41.012,53.07-45.468c2.008,11.382-2.955,30.94-12.182,43.957c6.857,2.55,9.689,15.871,9.113,19.818
							c2.967-0.778,7.264,1.061,7.264,1.061C327.705,395.604,325.393,405.214,318.658,408.733z"/>
					</g>
					<g>
						<path style="fill:#0D0F14;" d="M265.697,410.055c0,0,0.098-0.347,0.3-0.935c0.104-0.295,0.216-0.65,0.391-1.054
							c0.212-0.414,0.468-0.881,0.769-1.388c0.279-0.528,0.706-0.97,1.116-1.498c0.406-0.53,0.971-0.963,1.508-1.458
							c0.584-0.422,1.193-0.888,1.864-1.229c0.672-0.336,1.346-0.715,2.058-0.939c0.704-0.277,1.409-0.48,2.103-0.677l0.261-0.071
							l0.13-0.033l0.065-0.018l0.032-0.008c0.092-0.03-0.116,0.037-0.092,0.029l0.008-0.002l0.015-0.005l0.488-0.15
							c0.323-0.099,0.643-0.197,0.957-0.294c0.345-0.09,0.555-0.211,0.797-0.313c0.243-0.103,0.482-0.204,0.713-0.302
							c0.446-0.263,0.912-0.503,1.303-0.764c0.357-0.298,0.759-0.517,1.023-0.796c0.291-0.26,0.551-0.487,0.731-0.702
							c0.201-0.205,0.337-0.37,0.436-0.487c0.086-0.106,0.132-0.164,0.132-0.164l0.055-0.067c0.188-0.233,0.527-0.269,0.759-0.082
							c0.164,0.133,0.23,0.343,0.189,0.536c0,0-0.025,0.116-0.082,0.292c-0.06,0.17-0.126,0.444-0.277,0.741
							c-0.133,0.315-0.321,0.681-0.586,1.071c-0.235,0.418-0.596,0.805-0.976,1.254c-0.408,0.416-0.875,0.841-1.419,1.256
							c-0.299,0.187-0.605,0.378-0.919,0.574c-0.316,0.194-0.66,0.412-0.95,0.509c-0.303,0.126-0.611,0.254-0.924,0.384
							l-0.472,0.196l-0.564,0.2c-0.626,0.203-1.262,0.41-1.854,0.671c-0.616,0.232-1.188,0.5-1.752,0.773
							c-0.296,0.118-0.535,0.306-0.801,0.45c-0.26,0.152-0.531,0.287-0.775,0.448c-0.234,0.175-0.464,0.348-0.689,0.516
							c-0.233,0.16-0.471,0.311-0.66,0.506c-0.201,0.184-0.397,0.361-0.587,0.534c-0.2,0.166-0.395,0.328-0.539,0.508
							c-0.311,0.349-0.614,0.665-0.897,0.945c-0.265,0.34-0.495,0.635-0.685,0.879c-0.388,0.486-0.627,0.754-0.627,0.754
							c-0.231,0.26-0.629,0.282-0.889,0.051C265.698,410.532,265.635,410.278,265.697,410.055z"/>
					</g>
					<path style="fill:#FFC194;" d="M268.621,418.163c-3.031-0.916-9.307-3.877-12.549-4.37c-2.436-0.37-6.631-0.182-9.025,0.679
						c0.563,2.617,6.431,15.35,26.65,15.446c9.33,0.038,16.127-1.216,20.818-2.641C289.781,419.957,271.58,419.059,268.621,418.163z
						"/>
					<path style="fill:#0D0F14;" d="M253.252,415.551c1.691-1.476,2.035-5.72-1.695-5.571c-0.002,0-0.002,0-0.002,0
						c-2.333,1.637-4.557,3.393-4.557,4.146c0,0.508,0.615,2.461,2.245,4.829C248.82,418.293,251.564,417.023,253.252,415.551z"/>
					<path style="fill:#AB452F;" d="M320.191,354.347c2.898-9.097,4.035-18.272,2.889-24.774
						c-17.846,2.475-30.748,11.208-39.525,21.272c4.627,0.06,10.039-0.181,14.959-1.192c-0.848,0.833-1.412,6.614,0.705,6.051
						c2.113-0.564,11.412-2.38,13.361-4.275C311.221,354.695,313.383,356.111,320.191,354.347z"/>
					<path style="fill:#FFC194;" d="M288.109,377.601c9.369,1.084,15.152-5.132,17.736-8.851
						c7.332-10.558,7.895-26.342,7.895-26.342S297.162,352.829,288.109,377.601z"/>
					<g>
						<path style="fill:none;stroke:#0D0F14;stroke-width:3;stroke-linecap:round;stroke-linejoin:round;stroke-miterlimit:10;" d="
							M318.646,408.733c-0.394,0.678-0.834,1.298-1.33,1.816c0,0,2.154,0.564,2.154,1.128c0,0.564-7.141,9.87-16.355,11.652
							c0,0-8.076,6.678-29.418,6.588c-21.342-0.103-26.7-14.292-26.7-15.793c0-1.511,8.934-7.05,9.78-7.579
							c0.846-0.53,1.883-15.262,2.346-17.337c0.475-2.065,2.82-8.46,10.887-14.169c4.814-16.287,20.945-41.012,53.07-45.468
							c2.008,11.382-2.955,30.94-12.182,43.957c-2.934,4.128-6.293,7.603-9.994,9.949"/>
						<g>
							<path style="fill:#0D0F14;" d="M302.704,394.874c0.12-0.227,0.366-0.533,0.553-0.794l0.608-0.691
								c0.2-0.237,0.435-0.419,0.651-0.631c0.222-0.203,0.439-0.417,0.669-0.609l1.429-1.081c0.495-0.324,1.005-0.622,1.511-0.935
								c0.255-0.148,0.502-0.323,0.767-0.45l0.792-0.387l1.593-0.774c1.088-0.432,2.188-0.837,3.289-1.256
								c0.71-0.271,1.504,0.086,1.774,0.796c0.017,0.043,0.03,0.087,0.042,0.13l0.024,0.092l0.001,0.002l0.244,1.141
								c0.088,0.386,0.084,0.733,0.129,1.102c0.041,0.367,0.059,0.726,0.056,1.075c0,0.352,0.017,0.709,0.002,1.056
								c-0.024,0.695-0.061,1.387-0.13,2.069c-0.065,0.691-0.147,1.351-0.262,2.068l-1.409-1.755
								c0.352,0.021,0.643,0.044,0.96,0.079c0.309,0.036,0.619,0.064,0.927,0.115c0.615,0.08,1.232,0.207,1.848,0.332
								c0.619,0.165,1.234,0.297,1.856,0.54c0.311,0.119,0.618,0.199,0.932,0.369l0.931,0.464c0.521,0.26,0.801,0.813,0.738,1.36
								l-0.01,0.079c-0.06,0.514-0.118,0.969-0.197,1.445c-0.077,0.471-0.148,0.942-0.248,1.408
								c-0.171,0.936-0.408,1.864-0.641,2.793l-0.421,1.384c-0.125,0.464-0.327,0.918-0.497,1.375
								c-0.182,0.456-0.334,0.917-0.58,1.362l-0.683,1.344c-0.375,0.737-1.275,1.031-2.013,0.657
								c-0.737-0.374-1.031-1.275-0.657-2.013l0.082-0.162l0.56-1.112c0.205-0.355,0.339-0.771,0.496-1.167
								c0.148-0.402,0.326-0.786,0.439-1.211l0.38-1.248c0.212-0.852,0.432-1.701,0.589-2.57c0.093-0.431,0.158-0.867,0.23-1.302
								c0.072-0.428,0.129-0.883,0.177-1.28l0.728,1.439l-0.643-0.313c-0.199-0.119-0.464-0.185-0.698-0.275
								c-0.468-0.19-1.002-0.301-1.512-0.44c-0.531-0.105-1.061-0.217-1.606-0.288c-0.27-0.045-0.542-0.068-0.814-0.101
								c-0.264-0.03-0.557-0.052-0.789-0.067h-0.007c-0.837-0.054-1.472-0.775-1.419-1.612c0.004-0.048,0.009-0.097,0.017-0.143
								c0.092-0.579,0.174-1.224,0.23-1.84c0.064-0.624,0.095-1.243,0.117-1.861c0.014-0.309-0.003-0.608-0.003-0.913
								c0.006-0.308-0.011-0.604-0.046-0.891c-0.036-0.282-0.03-0.6-0.097-0.853l-0.162-0.786v-0.001l1.841,1.018
								c-1.044,0.286-2.1,0.56-3.149,0.855l-1.521,0.563l-0.764,0.281c-0.257,0.092-0.486,0.227-0.731,0.337
								c-0.482,0.236-0.976,0.46-1.452,0.708l-1.367,0.833c-0.219,0.149-0.421,0.316-0.634,0.473
								c-0.203,0.164-0.438,0.308-0.619,0.488l-0.57,0.526c-0.153,0.189-0.3,0.294-0.475,0.551
								c-0.256,0.376-0.769,0.474-1.146,0.218c-0.35-0.238-0.459-0.698-0.267-1.065L302.704,394.874z"/>
						</g>
						<g>
							<path style="fill:#0D0F14;" d="M316.696,341.648c0,0-0.18,0.098-0.46,0.277c-0.286,0.167-0.715,0.474-1.263,0.829
								c-0.537,0.387-1.201,0.832-1.922,1.411c-0.742,0.544-1.515,1.248-2.397,1.959c-0.841,0.764-1.787,1.551-2.696,2.485
								c-0.46,0.46-0.933,0.932-1.416,1.415c-0.46,0.505-0.931,1.022-1.408,1.547c-0.992,1.016-1.881,2.19-2.846,3.326
								c-0.929,1.165-1.825,2.391-2.729,3.605c-0.823,1.274-1.713,2.504-2.506,3.771c-0.766,1.284-1.52,2.549-2.249,3.771
								c-0.666,1.261-1.309,2.48-1.946,3.626c-0.609,1.159-1.101,2.298-1.602,3.328c-0.486,1.037-0.951,1.98-1.296,2.848
								c-0.362,0.86-0.679,1.61-0.939,2.228c-0.537,1.233-0.844,1.939-0.844,1.939l-0.021,0.048c-0.188,0.433-0.69,0.63-1.123,0.442
								c-0.4-0.175-0.599-0.619-0.477-1.027c0,0,0.225-0.749,0.616-2.061c0.204-0.654,0.452-1.449,0.737-2.361
								c0.254-0.925,0.664-1.922,1.108-3.012c0.45-1.088,0.89-2.289,1.446-3.521c0.572-1.225,1.205-2.503,1.858-3.827
								c0.691-1.305,1.482-2.614,2.259-3.957c0.812-1.324,1.718-2.619,2.6-3.929c0.955-1.258,1.895-2.529,2.885-3.729
								c1.038-1.16,1.998-2.355,3.063-3.391c0.523-0.525,1.039-1.041,1.543-1.546c0.53-0.478,1.05-0.945,1.555-1.4
								c0.997-0.923,2.03-1.698,2.948-2.446c1.895-1.436,3.591-2.471,4.796-3.165c0.616-0.335,1.097-0.583,1.456-0.748
								c0.343-0.156,0.525-0.239,0.525-0.239c0.422-0.192,0.92-0.007,1.112,0.415C317.248,340.963,317.08,341.44,316.696,341.648z"
								/>
						</g>
						<path style="fill:none;stroke:#0D0F14;stroke-width:3;stroke-linecap:round;stroke-linejoin:round;stroke-miterlimit:10;" d="
							M310.898,373.529c6.857,2.55,9.689,15.871,9.113,19.818c2.967-0.778,7.264,1.061,7.264,1.061
							c0.43,1.196-1.883,10.806-8.617,14.325h-0.012"/>
					</g>
				</g>
			</g>
		</g>
		<g>
			<path style="fill:#6BAD64;" d="M438.435,229.211c3.203-6.668-0.219-14.871-8.299-17.223c-2.137,3.01-1.455,7.361-1.455,7.361
				s-4.344-0.73-7.377,1.373C423.566,228.828,431.73,232.342,438.435,229.211z"/>
			<path style="fill:#6BAD64;" d="M381.727,340.35c3.203-6.668-0.219-14.871-8.299-17.223c-2.137,3.01-1.455,7.361-1.455,7.361
				s-4.344-0.73-7.377,1.373C366.857,339.967,375.021,343.48,381.727,340.35z"/>
			<path style="fill:#6BAD64;" d="M86.906,59.694c3.203-6.668-0.219-14.871-8.3-17.223c-2.137,3.01-1.455,7.361-1.455,7.361
				s-4.344-0.73-7.377,1.373C72.037,59.312,80.2,62.825,86.906,59.694z"/>
			<path style="fill:#6BAD64;" d="M328.84,90.373c3.203-6.668-0.219-14.871-8.301-17.223c-2.137,3.01-1.455,7.361-1.455,7.361
				s-4.344-0.73-7.377,1.373C313.971,89.99,322.133,93.504,328.84,90.373z"/>
			<path style="fill:#6BAD64;" d="M82.083,340.35c3.203-6.668-0.219-14.871-8.3-17.223c-2.137,3.01-1.455,7.361-1.455,7.361
				s-4.344-0.73-7.377,1.373C67.214,339.967,75.377,343.48,82.083,340.35z"/>
		</g>
	</g>
</g>
</svg>
